<svg version="1.1" id="Layer_1" xmlns="http://www.w3.org/2000/svg" xmlns:xlink="http://www.w3.org/1999/xlink" x="0px" y="0px"
	 width="100%" viewBox="0 0 2190 621" enable-background="new 0 0 2190 621" xml:space="preserve">
<path fill="#FDFEFE" opacity="1.000000" stroke="none" 
	d="
M1402.000000,622.000000 
	C934.666687,622.000000 467.833344,622.000000 1.000000,622.000000 
	C1.000000,415.000000 1.000000,208.000000 1.000000,1.000000 
	C731.000000,1.000000 1461.000000,1.000000 2191.000000,1.000000 
	C2191.000000,208.000000 2191.000000,415.000000 2191.000000,622.000000 
	C1928.166626,622.000000 1665.333374,622.000000 1402.000000,622.000000 
M210.305984,63.843834 
	C149.021545,90.231056 104.501404,134.412048 75.936073,194.067245 
	C42.783257,263.302887 40.280506,335.139069 68.172241,406.156921 
	C104.273750,498.078491 173.307236,552.174744 270.198944,570.140564 
	C305.514526,576.688843 340.899872,574.610352 375.796204,565.732178 
	C429.699921,552.018066 475.126465,524.449463 511.327362,482.162659 
	C548.621338,438.598999 568.711914,387.718689 573.306458,330.818298 
	C579.286682,256.755554 557.711426,191.111832 509.735107,134.680634 
	C466.478699,83.801094 411.373932,53.549206 344.876801,44.661114 
	C298.477478,38.459324 253.967438,45.480438 210.305984,63.843834 
M1765.935059,421.500000 
	C1765.935913,432.164185 1766.014526,442.829315 1765.887451,453.492004 
	C1765.851807,456.490112 1766.875488,457.627777 1769.901855,457.681274 
	C1774.390503,457.760559 1779.042236,457.586792 1783.326172,458.684692 
	C1799.580200,462.850281 1815.939453,466.804626 1831.848511,472.077209 
	C1871.141846,485.099823 1910.783813,487.766327 1950.915527,477.214417 
	C1979.083130,469.808197 2000.548462,454.300110 2007.868530,424.438202 
	C2014.655518,396.751221 2010.292603,371.410400 1989.079224,350.761536 
	C1974.372803,336.446381 1956.607178,326.514740 1938.757935,316.762238 
	C1911.445557,301.839264 1884.015137,287.122192 1856.939087,271.781036 
	C1842.889648,263.820709 1829.193115,255.014252 1819.546631,241.522827 
	C1809.694824,227.743896 1806.561646,213.000702 1815.421143,197.562515 
	C1823.965210,182.674286 1837.903687,175.859833 1854.322876,173.511520 
	C1880.205811,169.809738 1901.214355,179.837067 1919.521118,197.119034 
	C1934.552490,211.309174 1946.308716,228.029190 1956.521484,245.868439 
	C1958.632202,249.555206 1960.198975,249.957138 1963.707153,247.374573 
	C1975.770752,238.493668 1988.104614,229.980347 2000.314819,221.297821 
	C2002.171509,219.977631 2003.918213,218.502640 2005.923828,216.936752 
	C2004.668945,215.252380 2003.750488,213.895416 2002.709473,212.640121 
	C1971.153320,174.593948 1931.073975,155.598663 1881.291992,158.734970 
	C1854.888428,160.398422 1829.281616,164.302261 1806.142944,179.207520 
	C1770.407715,202.227066 1759.966919,250.139954 1783.980835,285.195648 
	C1793.345215,298.865997 1806.241211,308.570862 1820.006470,317.075745 
	C1847.480347,334.050568 1875.403076,350.298920 1902.864746,367.292908 
	C1918.844360,377.181519 1934.849121,387.212372 1947.432739,401.588684 
	C1965.611694,422.357300 1960.423218,450.048309 1935.947998,462.941132 
	C1909.781738,476.724762 1874.675781,472.787842 1853.066284,452.724243 
	C1841.871582,442.330414 1831.890869,430.632446 1821.310425,419.572693 
	C1807.557739,405.197418 1790.967163,397.175690 1770.824341,396.879974 
	C1767.223389,396.827087 1765.688354,397.607513 1765.858765,401.507690 
	C1766.135010,407.827515 1765.934204,414.168152 1765.935059,421.500000 
M1537.424316,371.809906 
	C1514.333252,408.825806 1491.242065,445.841736 1467.898926,483.261719 
	C1469.617920,483.639526 1470.096191,483.836700 1470.574463,483.836761 
	C1554.390381,483.847717 1638.206421,483.826263 1722.022339,483.904663 
	C1725.632690,483.908051 1726.437744,482.166168 1726.954102,479.150513 
	C1729.202271,466.021362 1731.631714,452.923218 1733.999634,439.814575 
	C1736.007935,428.696136 1738.021973,417.578735 1740.033325,406.460876 
	C1739.809570,406.355469 1739.585693,406.250031 1739.361938,406.144592 
	C1737.275269,409.249939 1735.188721,412.355347 1733.101929,415.460571 
	C1723.693970,429.459534 1712.120483,441.118164 1697.671265,450.083954 
	C1678.802368,461.792114 1658.141846,468.223755 1636.329102,469.343872 
	C1606.744629,470.863098 1577.069458,470.616425 1547.432617,471.096252 
	C1547.027710,471.102844 1546.616089,470.705078 1545.576660,470.173065 
	C1610.398438,366.528595 1675.104858,263.068542 1740.491211,158.521286 
	C1737.501221,158.521286 1735.893066,158.521301 1734.284790,158.521271 
	C1656.634033,158.520081 1578.983398,158.518250 1501.332642,158.518448 
	C1490.477661,158.518478 1490.348633,158.499084 1488.406982,168.936386 
	C1484.290161,191.065338 1480.321777,213.221909 1476.063110,236.627792 
	C1478.076416,233.868271 1479.428955,232.195786 1480.586670,230.397873 
	C1487.747559,219.277145 1495.892944,209.015793 1506.303101,200.716827 
	C1529.572510,182.166473 1556.646729,173.650635 1585.849731,172.142365 
	C1610.117554,170.888962 1634.463989,171.155746 1658.776367,170.789658 
	C1659.665771,170.776245 1660.561768,171.192017 1662.218750,171.592377 
	C1620.538574,238.458313 1579.170166,304.824158 1537.424316,371.809906 
M1324.135742,379.363373 
	C1352.603394,407.167786 1381.078247,434.964691 1409.532104,462.783142 
	C1415.039307,468.167297 1414.929932,473.058868 1409.324829,478.636444 
	C1407.911865,480.042572 1406.542236,481.492157 1404.573242,483.517761 
	C1417.121094,483.517761 1428.489624,483.517761 1440.551758,483.517761 
	C1439.654663,482.349701 1439.310181,481.552368 1438.703857,481.164642 
	C1430.968750,476.218994 1428.961426,469.050232 1428.980591,460.160583 
	C1429.177612,367.829987 1429.208008,275.498535 1428.943359,183.168320 
	C1428.915771,173.557510 1430.835693,165.777008 1439.102295,160.300308 
	C1439.369507,160.123337 1439.349731,159.513245 1439.496826,158.986237 
	C1428.158325,158.986237 1417.044922,158.986237 1405.931519,158.986237 
	C1413.186401,164.205978 1416.837280,170.678177 1416.822998,179.530182 
	C1416.714722,246.194946 1416.755249,312.859955 1416.722412,379.524902 
	C1416.721680,381.044128 1416.404541,382.563232 1416.122681,385.087280 
	C1413.759277,382.986267 1412.249023,381.744446 1410.851685,380.386475 
	C1389.118042,359.264282 1367.400024,338.126129 1345.676392,316.993591 
	C1299.485107,272.059326 1253.286865,227.132446 1207.109497,182.184143 
	C1201.402588,176.629211 1200.896851,171.560867 1205.240479,164.766754 
	C1206.420166,162.921478 1207.749146,161.171661 1209.380615,158.850311 
	C1197.023071,158.850311 1185.656372,158.850311 1174.289673,158.850311 
	C1173.849609,159.129974 1173.409424,159.409622 1172.969238,159.689285 
	C1187.148438,166.454529 1184.916992,178.822403 1184.917847,190.412048 
	C1184.924561,279.743103 1184.844604,369.074341 1185.033691,458.404999 
	C1185.053955,467.950653 1183.860229,476.326813 1175.109741,481.869385 
	C1174.801514,482.064606 1174.775513,482.705170 1174.489624,483.490845 
	C1185.868042,483.490845 1196.991577,483.490845 1208.830200,483.490845 
	C1207.856079,482.310028 1207.475952,481.533417 1206.853638,481.142761 
	C1199.068604,476.255463 1196.982666,469.084503 1197.011230,460.199982 
	C1197.224365,394.035736 1197.132446,327.870544 1197.149536,261.705627 
	C1197.149902,260.142761 1197.303711,258.579956 1197.464478,255.522507 
	C1240.178833,297.279266 1281.906616,338.071655 1324.135742,379.363373 
M1117.869507,416.416779 
	C1125.737183,392.577545 1128.341675,367.995087 1128.328247,343.026276 
	C1128.299561,289.699127 1128.496582,236.370850 1128.158325,183.045822 
	C1128.097168,173.416855 1130.127808,165.680695 1138.432373,160.265961 
	C1138.713989,160.082367 1138.707153,159.456711 1138.857544,158.962341 
	C1127.559448,158.962341 1116.446289,158.962341 1105.333130,158.962341 
	C1115.941772,165.522339 1116.095703,175.516846 1116.053955,186.075333 
	C1115.847168,238.235153 1115.998901,290.396301 1115.935913,342.556824 
	C1115.916382,358.732788 1114.796509,374.768402 1111.085571,390.644989 
	C1100.525757,435.822327 1060.565063,464.953278 1014.102234,460.608887 
	C978.985962,457.325409 952.401306,441.634888 939.225037,407.413666 
	C932.187805,389.136749 929.864929,370.004578 929.854492,350.540253 
	C929.824463,294.713409 929.998291,238.885529 929.661560,183.060669 
	C929.602661,173.290314 931.424438,165.302460 940.104980,159.911713 
	C940.249878,159.821716 940.157654,159.349930 940.192444,158.797226 
	C913.606934,158.797226 887.059570,158.797226 860.532349,158.797226 
	C860.503357,159.266327 860.433044,159.451355 860.495667,159.559402 
	C860.738892,159.979202 860.937378,160.495331 861.306824,160.761093 
	C868.687439,166.070969 870.494629,173.420593 870.454773,182.192001 
	C870.222900,233.185059 870.231689,284.180023 870.389526,335.173645 
	C870.465210,359.620483 873.030090,383.748169 882.056458,406.767517 
	C895.096130,440.021667 917.250671,464.175903 951.852478,475.345886 
	C982.118286,485.116119 1013.001038,486.433105 1044.153198,480.248505 
	C1080.447266,473.043121 1105.308960,452.391113 1117.869507,416.416779 
M783.468140,456.962372 
	C786.211548,453.415192 789.304443,450.082764 791.638245,446.283966 
	C802.168396,429.143524 805.783386,410.106659 805.818909,390.340912 
	C805.945190,320.182922 805.926270,250.024445 805.788818,179.866486 
	C805.773499,172.050369 808.185059,165.883759 814.558777,161.362579 
	C815.343994,160.805634 816.308960,160.502045 817.190613,160.081024 
	C816.880249,159.672363 816.569885,159.263687 816.259460,158.855026 
	C789.412781,158.855026 762.566101,158.855026 735.150635,158.855026 
	C735.922607,159.867157 736.199341,160.529968 736.695984,160.836212 
	C744.200500,165.463776 746.286682,172.315689 746.263550,180.849503 
	C746.075867,250.173996 746.215393,319.499329 746.068054,388.824005 
	C746.050110,397.284668 745.422485,405.814819 744.213318,414.187988 
	C741.337463,434.102386 730.924500,449.426788 714.270874,460.525360 
	C712.108276,461.966553 709.513062,463.313263 706.998291,463.582336 
	C689.511108,465.453094 673.037415,463.535858 659.738281,450.208710 
	C658.297791,448.765259 655.700623,448.475983 653.640015,447.651367 
	C653.308777,448.147919 652.977478,448.644501 652.646240,449.141083 
	C654.027527,451.127014 655.172791,453.339264 656.826599,455.063995 
	C673.580200,472.536072 692.059753,485.098663 718.254700,483.971985 
	C743.483826,482.886871 765.203491,475.629944 783.468140,456.962372 
z"/>
<path fill="#17252F" opacity="1.000000" stroke="none" 
	d="
M210.655029,63.695969 
	C253.967438,45.480438 298.477478,38.459324 344.876801,44.661114 
	C411.373932,53.549206 466.478699,83.801094 509.735107,134.680634 
	C557.711426,191.111832 579.286682,256.755554 573.306458,330.818298 
	C568.711914,387.718689 548.621338,438.598999 511.327362,482.162659 
	C475.126465,524.449463 429.699921,552.018066 375.796204,565.732178 
	C340.899872,574.610352 305.514526,576.688843 270.198944,570.140564 
	C173.307236,552.174744 104.273750,498.078491 68.172241,406.156921 
	C40.280506,335.139069 42.783257,263.302887 75.936073,194.067245 
	C104.501404,134.412048 149.021545,90.231056 210.655029,63.695969 
M176.658463,489.840851 
	C229.477264,528.016479 288.056274,542.770508 352.383423,531.477478 
	C408.472046,521.630859 455.094818,494.232269 489.455139,448.921143 
	C534.437439,389.602814 547.471375,322.649414 529.081726,250.455673 
	C517.239807,203.967163 492.148590,165.239990 454.992035,134.621338 
	C452.271667,132.379639 451.720825,130.505463 452.696381,127.083435 
	C458.339905,107.288452 444.770355,89.809616 424.156372,90.212845 
	C414.331879,90.405022 404.516998,91.252159 394.694550,91.318047 
	C389.608185,91.352173 384.474457,90.572662 379.431793,89.739204 
	C362.375763,86.920158 345.447845,82.993126 328.292328,81.182999 
	C299.271942,78.121002 270.864288,82.948433 242.855698,90.509499 
	C239.708313,91.359154 236.294998,91.607994 233.019455,91.529884 
	C221.030212,91.244041 209.043747,90.265953 197.062454,90.358131 
	C178.793930,90.498665 165.679810,108.217369 170.858582,125.713219 
	C172.214401,130.293732 171.628326,133.154297 167.793335,135.654495 
	C166.550461,136.464767 165.503723,137.579193 164.381256,138.570328 
	C121.362289,176.556152 96.465569,224.276016 89.049812,280.954132 
	C84.421089,316.331146 88.295311,351.123169 100.029388,384.855103 
	C114.807350,427.337250 139.647980,462.615967 176.658463,489.840851 
z"/>
<path fill="#060606" opacity="1.000000" stroke="none" 
	d="
M1765.934937,421.000000 
	C1765.934204,414.168152 1766.135010,407.827515 1765.858765,401.507690 
	C1765.688354,397.607513 1767.223389,396.827087 1770.824341,396.879974 
	C1790.967163,397.175690 1807.557739,405.197418 1821.310425,419.572693 
	C1831.890869,430.632446 1841.871582,442.330414 1853.066284,452.724243 
	C1874.675781,472.787842 1909.781738,476.724762 1935.947998,462.941132 
	C1960.423218,450.048309 1965.611694,422.357300 1947.432739,401.588684 
	C1934.849121,387.212372 1918.844360,377.181519 1902.864746,367.292908 
	C1875.403076,350.298920 1847.480347,334.050568 1820.006470,317.075745 
	C1806.241211,308.570862 1793.345215,298.865997 1783.980835,285.195648 
	C1759.966919,250.139954 1770.407715,202.227066 1806.142944,179.207520 
	C1829.281616,164.302261 1854.888428,160.398422 1881.291992,158.734970 
	C1931.073975,155.598663 1971.153320,174.593948 2002.709473,212.640121 
	C2003.750488,213.895416 2004.668945,215.252380 2005.923828,216.936752 
	C2003.918213,218.502640 2002.171509,219.977631 2000.314819,221.297821 
	C1988.104614,229.980347 1975.770752,238.493668 1963.707153,247.374573 
	C1960.198975,249.957138 1958.632202,249.555206 1956.521484,245.868439 
	C1946.308716,228.029190 1934.552490,211.309174 1919.521118,197.119034 
	C1901.214355,179.837067 1880.205811,169.809738 1854.322876,173.511520 
	C1837.903687,175.859833 1823.965210,182.674286 1815.421143,197.562515 
	C1806.561646,213.000702 1809.694824,227.743896 1819.546631,241.522827 
	C1829.193115,255.014252 1842.889648,263.820709 1856.939087,271.781036 
	C1884.015137,287.122192 1911.445557,301.839264 1938.757935,316.762238 
	C1956.607178,326.514740 1974.372803,336.446381 1989.079224,350.761536 
	C2010.292603,371.410400 2014.655518,396.751221 2007.868530,424.438202 
	C2000.548462,454.300110 1979.083130,469.808197 1950.915527,477.214417 
	C1910.783813,487.766327 1871.141846,485.099823 1831.848511,472.077209 
	C1815.939453,466.804626 1799.580200,462.850281 1783.326172,458.684692 
	C1779.042236,457.586792 1774.390503,457.760559 1769.901855,457.681274 
	C1766.875488,457.627777 1765.851807,456.490112 1765.887451,453.492004 
	C1766.014526,442.829315 1765.935913,432.164185 1765.934937,421.000000 
z"/>
<path fill="#060606" opacity="1.000000" stroke="none" 
	d="
M1537.613037,371.499939 
	C1579.170166,304.824158 1620.538574,238.458313 1662.218750,171.592377 
	C1660.561768,171.192017 1659.665771,170.776245 1658.776367,170.789658 
	C1634.463989,171.155746 1610.117554,170.888962 1585.849731,172.142365 
	C1556.646729,173.650635 1529.572510,182.166473 1506.303101,200.716827 
	C1495.892944,209.015793 1487.747559,219.277145 1480.586670,230.397873 
	C1479.428955,232.195786 1478.076416,233.868271 1476.063110,236.627792 
	C1480.321777,213.221909 1484.290161,191.065338 1488.406982,168.936386 
	C1490.348633,158.499084 1490.477661,158.518478 1501.332642,158.518448 
	C1578.983398,158.518250 1656.634033,158.520081 1734.284790,158.521271 
	C1735.893066,158.521301 1737.501221,158.521286 1740.491211,158.521286 
	C1675.104858,263.068542 1610.398438,366.528595 1545.576660,470.173065 
	C1546.616089,470.705078 1547.027710,471.102844 1547.432617,471.096252 
	C1577.069458,470.616425 1606.744629,470.863098 1636.329102,469.343872 
	C1658.141846,468.223755 1678.802368,461.792114 1697.671265,450.083954 
	C1712.120483,441.118164 1723.693970,429.459534 1733.101929,415.460571 
	C1735.188721,412.355347 1737.275269,409.249939 1739.361938,406.144592 
	C1739.585693,406.250031 1739.809570,406.355469 1740.033325,406.460876 
	C1738.021973,417.578735 1736.007935,428.696136 1733.999634,439.814575 
	C1731.631714,452.923218 1729.202271,466.021362 1726.954102,479.150513 
	C1726.437744,482.166168 1725.632690,483.908051 1722.022339,483.904663 
	C1638.206421,483.826263 1554.390381,483.847717 1470.574463,483.836761 
	C1470.096191,483.836700 1469.617920,483.639526 1467.898926,483.261719 
	C1491.242065,445.841736 1514.333252,408.825806 1537.613037,371.499939 
z"/>
<path fill="#070707" opacity="1.000000" stroke="none" 
	d="
M1323.885132,379.113708 
	C1281.906616,338.071655 1240.178833,297.279266 1197.464478,255.522507 
	C1197.303711,258.579956 1197.149902,260.142761 1197.149536,261.705627 
	C1197.132446,327.870544 1197.224365,394.035736 1197.011230,460.199982 
	C1196.982666,469.084503 1199.068604,476.255463 1206.853638,481.142761 
	C1207.475952,481.533417 1207.856079,482.310028 1208.830200,483.490845 
	C1196.991577,483.490845 1185.868042,483.490845 1174.489624,483.490845 
	C1174.775513,482.705170 1174.801514,482.064606 1175.109741,481.869385 
	C1183.860229,476.326813 1185.053955,467.950653 1185.033691,458.404999 
	C1184.844604,369.074341 1184.924561,279.743103 1184.917847,190.412048 
	C1184.916992,178.822403 1187.148438,166.454529 1172.969238,159.689285 
	C1173.409424,159.409622 1173.849609,159.129974 1174.289673,158.850311 
	C1185.656372,158.850311 1197.023071,158.850311 1209.380615,158.850311 
	C1207.749146,161.171661 1206.420166,162.921478 1205.240479,164.766754 
	C1200.896851,171.560867 1201.402588,176.629211 1207.109497,182.184143 
	C1253.286865,227.132446 1299.485107,272.059326 1345.676392,316.993591 
	C1367.400024,338.126129 1389.118042,359.264282 1410.851685,380.386475 
	C1412.249023,381.744446 1413.759277,382.986267 1416.122681,385.087280 
	C1416.404541,382.563232 1416.721680,381.044128 1416.722412,379.524902 
	C1416.755249,312.859955 1416.714722,246.194946 1416.822998,179.530182 
	C1416.837280,170.678177 1413.186401,164.205978 1405.931519,158.986237 
	C1417.044922,158.986237 1428.158325,158.986237 1439.496826,158.986237 
	C1439.349731,159.513245 1439.369507,160.123337 1439.102295,160.300308 
	C1430.835693,165.777008 1428.915771,173.557510 1428.943359,183.168320 
	C1429.208008,275.498535 1429.177612,367.829987 1428.980591,460.160583 
	C1428.961426,469.050232 1430.968750,476.218994 1438.703857,481.164642 
	C1439.310181,481.552368 1439.654663,482.349701 1440.551758,483.517761 
	C1428.489624,483.517761 1417.121094,483.517761 1404.573242,483.517761 
	C1406.542236,481.492157 1407.911865,480.042572 1409.324829,478.636444 
	C1414.929932,473.058868 1415.039307,468.167297 1409.532104,462.783142 
	C1381.078247,434.964691 1352.603394,407.167786 1323.885132,379.113708 
z"/>
<path fill="#070707" opacity="1.000000" stroke="none" 
	d="
M1117.693115,416.766266 
	C1105.308960,452.391113 1080.447266,473.043121 1044.153198,480.248505 
	C1013.001038,486.433105 982.118286,485.116119 951.852478,475.345886 
	C917.250671,464.175903 895.096130,440.021667 882.056458,406.767517 
	C873.030090,383.748169 870.465210,359.620483 870.389526,335.173645 
	C870.231689,284.180023 870.222900,233.185059 870.454773,182.192001 
	C870.494629,173.420593 868.687439,166.070969 861.306824,160.761093 
	C860.937378,160.495331 860.738892,159.979202 860.495667,159.559402 
	C860.433044,159.451355 860.503357,159.266327 860.532349,158.797226 
	C887.059570,158.797226 913.606934,158.797226 940.192444,158.797226 
	C940.157654,159.349930 940.249878,159.821716 940.104980,159.911713 
	C931.424438,165.302460 929.602661,173.290314 929.661560,183.060669 
	C929.998291,238.885529 929.824463,294.713409 929.854492,350.540253 
	C929.864929,370.004578 932.187805,389.136749 939.225037,407.413666 
	C952.401306,441.634888 978.985962,457.325409 1014.102234,460.608887 
	C1060.565063,464.953278 1100.525757,435.822327 1111.085571,390.644989 
	C1114.796509,374.768402 1115.916382,358.732788 1115.935913,342.556824 
	C1115.998901,290.396301 1115.847168,238.235153 1116.053955,186.075333 
	C1116.095703,175.516846 1115.941772,165.522339 1105.333130,158.962341 
	C1116.446289,158.962341 1127.559448,158.962341 1138.857544,158.962341 
	C1138.707153,159.456711 1138.713989,160.082367 1138.432373,160.265961 
	C1130.127808,165.680695 1128.097168,173.416855 1128.158325,183.045822 
	C1128.496582,236.370850 1128.299561,289.699127 1128.328247,343.026276 
	C1128.341675,367.995087 1125.737183,392.577545 1117.693115,416.766266 
z"/>
<path fill="#050505" opacity="1.000000" stroke="none" 
	d="
M783.205017,457.201660 
	C765.203491,475.629944 743.483826,482.886871 718.254700,483.971985 
	C692.059753,485.098663 673.580200,472.536072 656.826599,455.063995 
	C655.172791,453.339264 654.027527,451.127014 652.646240,449.141083 
	C652.977478,448.644501 653.308777,448.147919 653.640015,447.651367 
	C655.700623,448.475983 658.297791,448.765259 659.738281,450.208710 
	C673.037415,463.535858 689.511108,465.453094 706.998291,463.582336 
	C709.513062,463.313263 712.108276,461.966553 714.270874,460.525360 
	C730.924500,449.426788 741.337463,434.102386 744.213318,414.187988 
	C745.422485,405.814819 746.050110,397.284668 746.068054,388.824005 
	C746.215393,319.499329 746.075867,250.173996 746.263550,180.849503 
	C746.286682,172.315689 744.200500,165.463776 736.695984,160.836212 
	C736.199341,160.529968 735.922607,159.867157 735.150635,158.855026 
	C762.566101,158.855026 789.412781,158.855026 816.259460,158.855026 
	C816.569885,159.263687 816.880249,159.672363 817.190613,160.081024 
	C816.308960,160.502045 815.343994,160.805634 814.558777,161.362579 
	C808.185059,165.883759 805.773499,172.050369 805.788818,179.866486 
	C805.926270,250.024445 805.945190,320.182922 805.818909,390.340912 
	C805.783386,410.106659 802.168396,429.143524 791.638245,446.283966 
	C789.304443,450.082764 786.211548,453.415192 783.205017,457.201660 
z"/>
<path fill="#F7F9F9" opacity="1.000000" stroke="none" 
	d="
M176.395172,489.596558 
	C139.647980,462.615967 114.807350,427.337250 100.029388,384.855103 
	C88.295311,351.123169 84.421089,316.331146 89.049812,280.954132 
	C96.465569,224.276016 121.362289,176.556152 164.381256,138.570328 
	C165.503723,137.579193 166.550461,136.464767 167.793335,135.654495 
	C171.628326,133.154297 172.214401,130.293732 170.858582,125.713219 
	C165.679810,108.217369 178.793930,90.498665 197.062454,90.358131 
	C209.043747,90.265953 221.030212,91.244041 233.019455,91.529884 
	C236.294998,91.607994 239.708313,91.359154 242.855698,90.509499 
	C270.864288,82.948433 299.271942,78.121002 328.292328,81.182999 
	C345.447845,82.993126 362.375763,86.920158 379.431793,89.739204 
	C384.474457,90.572662 389.608185,91.352173 394.694550,91.318047 
	C404.516998,91.252159 414.331879,90.405022 424.156372,90.212845 
	C444.770355,89.809616 458.339905,107.288452 452.696381,127.083435 
	C451.720825,130.505463 452.271667,132.379639 454.992035,134.621338 
	C492.148590,165.239990 517.239807,203.967163 529.081726,250.455673 
	C547.471375,322.649414 534.437439,389.602814 489.455139,448.921143 
	C455.094818,494.232269 408.472046,521.630859 352.383423,531.477478 
	C288.056274,542.770508 229.477264,528.016479 176.395172,489.596558 
M418.612488,225.119125 
	C407.234528,251.509094 388.854279,271.756317 364.563812,286.853058 
	C358.213287,290.799927 351.615997,294.470886 345.768341,299.076447 
	C337.571228,305.532379 338.158997,316.546448 346.661530,322.376373 
	C350.069916,324.713409 353.894531,326.485718 357.643127,328.277771 
	C407.488770,352.106689 434.257507,405.824860 425.282227,451.091614 
	C424.953156,452.751160 426.417999,455.751251 427.921906,456.631287 
	C438.607788,462.884521 453.381653,460.567352 461.796661,451.571838 
	C497.553741,413.348145 514.718689,367.299500 516.644592,315.709137 
	C518.780823,258.485138 499.763489,208.509979 460.882202,166.326599 
	C455.330170,160.303070 449.054016,154.946945 443.703278,149.844772 
	C437.683624,154.304901 432.674133,158.016571 427.096924,162.148880 
	C430.324524,183.100784 427.017090,204.073853 418.612488,225.119125 
M147.718613,185.236343 
	C144.084259,190.613373 140.158691,195.818237 136.861877,201.394821 
	C111.790855,243.802490 103.027229,289.614014 109.464417,338.253540 
	C114.974998,379.891632 131.022461,416.990631 159.217697,448.497406 
	C170.119812,460.679932 178.872986,462.801056 194.393860,457.253571 
	C197.905411,455.998444 199.584808,454.273193 198.623749,450.224579 
	C197.745728,446.525726 197.290817,442.654480 197.216324,438.848114 
	C196.555756,405.092010 208.881210,376.516235 232.120544,352.403839 
	C243.965225,340.114166 258.585510,331.966919 273.672211,324.383881 
	C287.347839,317.510101 287.734161,304.338104 274.815399,296.005463 
	C269.225861,292.400208 263.338501,289.252472 257.789276,285.589630 
	C214.082169,256.740295 192.484558,216.772949 196.718307,163.837433 
	C196.805634,162.745605 196.314560,161.102264 195.512207,160.527542 
	C190.733459,157.104599 185.783569,153.920609 180.436478,150.353043 
	C168.620499,160.242279 157.556366,171.659943 147.718613,185.236343 
M344.733185,428.774841 
	C341.712799,426.158234 338.780609,423.429840 335.646790,420.957031 
	C332.627411,418.574554 330.668213,414.570343 325.812561,414.592773 
	C334.085449,425.669556 342.288879,436.787689 351.951599,446.445892 
	C361.635864,456.125610 372.776520,464.348267 384.161011,473.953857 
	C382.396667,473.775024 381.740814,473.866638 381.233459,473.634247 
	C363.966827,465.725372 347.945312,455.820892 336.236786,440.645966 
	C329.396545,431.780670 323.991455,421.745270 318.495941,411.925537 
	C314.284271,404.399719 308.821838,402.762207 301.943085,408.018097 
	C300.890411,408.822449 299.952728,409.780640 298.985046,410.692322 
	C294.138733,415.258118 289.407776,419.952789 284.440796,424.382996 
	C258.623596,447.410065 229.537262,464.743164 196.146408,474.354614 
	C189.755569,476.194214 183.110962,477.152130 175.216751,478.802521 
	C178.838562,480.198730 181.202225,481.327911 183.686890,482.026917 
	C191.191223,484.138123 198.921463,485.586609 206.227783,488.223907 
	C214.341599,491.152771 221.977966,495.376831 230.007751,498.570465 
	C283.791260,519.961365 337.843140,520.348877 391.832214,499.621124 
	C409.162048,492.967773 425.796570,484.481018 444.187073,480.778290 
	C445.597565,480.494293 446.889648,479.622314 449.293549,478.553955 
	C404.585114,469.319519 373.414764,454.389038 344.733185,428.774841 
M336.113159,285.590088 
	C340.207825,283.036530 344.240784,280.377045 348.408020,277.947968 
	C365.396423,268.045471 380.915802,256.481323 392.113373,239.926636 
	C406.760040,218.272705 414.829865,194.923965 411.342865,168.330872 
	C410.687134,163.330460 407.940948,163.449173 404.460266,163.737625 
	C400.122406,164.097122 401.713013,167.242599 402.128632,169.365448 
	C404.404572,180.989777 402.602356,192.260437 399.358917,203.389343 
	C398.830017,205.204132 397.563324,207.018585 396.166199,208.331528 
	C385.441528,218.409912 372.733612,224.618805 358.263092,227.208069 
	C336.584167,231.087189 316.290771,225.989212 296.457550,217.711670 
	C281.243439,211.361969 266.056519,204.685760 249.358902,203.413544 
	C241.478271,202.813110 233.513992,203.310577 225.128922,203.310577 
	C224.567169,201.466965 223.779297,199.121719 223.138840,196.736877 
	C220.632889,187.405548 220.381577,177.956406 222.260971,168.521179 
	C223.077515,164.421829 221.445312,163.723785 217.838852,163.682510 
	C212.456345,163.620941 213.200119,167.730408 212.948044,170.663361 
	C209.790421,207.402390 224.062744,237.138321 251.165436,260.765625 
	C261.479584,269.757141 273.948914,276.270538 285.405151,283.959320 
	C300.628235,294.176208 309.595306,307.615143 309.094849,326.810150 
	C308.582550,346.460114 309.025391,366.134949 309.051910,385.798920 
	C309.053467,386.965088 308.707581,388.305206 309.163544,389.258057 
	C309.913452,390.825317 311.187683,392.141632 312.240875,393.563721 
	C313.166687,392.191315 314.217834,390.882599 314.961823,389.417877 
	C315.299133,388.753754 315.030823,387.780151 315.031006,386.946930 
	C315.035919,366.949768 315.462524,346.941071 314.917389,326.958893 
	C314.436493,309.332489 321.757080,296.179779 336.113159,285.590088 
M299.500305,107.495636 
	C283.001862,107.534500 266.503418,107.582375 250.004990,107.609718 
	C233.173828,107.637619 216.342560,107.620636 199.511505,107.676895 
	C194.462784,107.693771 190.874481,110.099136 189.293213,114.928810 
	C187.666168,119.898239 189.285980,124.627083 193.767776,127.593460 
	C195.907822,129.009903 198.511490,129.725861 201.099625,130.843018 
	C201.023605,131.702209 200.938751,132.677109 200.850922,133.651733 
	C200.034515,142.711578 204.007080,147.255524 213.003387,147.254791 
	C278.164917,147.249466 343.326477,147.229263 408.487946,147.149155 
	C421.057556,147.133698 424.906250,142.596695 423.120453,130.174149 
	C424.692657,129.790985 426.319855,129.501343 427.876404,128.994690 
	C432.286896,127.559090 435.724335,122.727493 435.545776,118.355469 
	C435.354736,113.678223 432.004852,109.220963 427.418915,108.083771 
	C425.192169,107.531601 422.802948,107.467407 420.487183,107.466446 
	C380.491577,107.449799 340.495972,107.477470 299.500305,107.495636 
M243.017258,364.517151 
	C232.302399,374.881805 224.488312,387.157776 219.604752,401.186157 
	C218.095703,405.521057 217.525528,410.246185 217.079208,414.846375 
	C216.956177,416.114563 218.631607,418.441803 219.839630,418.717987 
	C221.180283,419.024475 223.175980,417.821686 224.418213,416.738861 
	C225.286057,415.982361 225.463318,414.347137 225.784943,413.063263 
	C232.946121,384.478119 251.114975,365.069885 276.741882,351.865021 
	C277.920319,351.257812 279.440887,350.883148 280.159515,349.920441 
	C281.132507,348.616974 282.429413,346.080933 281.907379,345.438263 
	C280.768646,344.036346 278.635529,343.016296 276.780884,342.757843 
	C275.326569,342.555206 273.617950,343.600800 272.129120,344.314575 
	C261.562897,349.380096 251.723846,355.517517 243.017258,364.517151 
M407.394531,411.086731 
	C402.948639,389.432098 391.168396,372.124237 374.382629,358.454376 
	C366.634949,352.144836 357.296295,347.725281 348.414642,342.939270 
	C347.058228,342.208313 344.267181,344.139740 342.139648,344.839813 
	C343.112152,346.871185 343.940277,348.993439 345.131836,350.886932 
	C345.576965,351.594269 346.883057,351.741699 347.774261,352.188934 
	C373.642365,365.168976 391.410522,384.956573 399.012848,413.254852 
	C399.828156,416.289642 400.753052,419.545593 404.665131,418.724121 
	C408.173523,417.987518 408.341675,414.918701 407.394531,411.086731 
z"/>
<path fill="#14242E" opacity="1.000000" stroke="none" 
	d="
M418.738403,224.757874 
	C427.017090,204.073853 430.324524,183.100784 427.096924,162.148880 
	C432.674133,158.016571 437.683624,154.304901 443.703278,149.844772 
	C449.054016,154.946945 455.330170,160.303070 460.882202,166.326599 
	C499.763489,208.509979 518.780823,258.485138 516.644592,315.709137 
	C514.718689,367.299500 497.553741,413.348145 461.796661,451.571838 
	C453.381653,460.567352 438.607788,462.884521 427.921906,456.631287 
	C426.417999,455.751251 424.953156,452.751160 425.282227,451.091614 
	C434.257507,405.824860 407.488770,352.106689 357.643127,328.277771 
	C353.894531,326.485718 350.069916,324.713409 346.661530,322.376373 
	C338.158997,316.546448 337.571228,305.532379 345.768341,299.076447 
	C351.615997,294.470886 358.213287,290.799927 364.563812,286.853058 
	C388.854279,271.756317 407.234528,251.509094 418.738403,224.757874 
z"/>
<path fill="#15232E" opacity="1.000000" stroke="none" 
	d="
M147.930603,184.948212 
	C157.556366,171.659943 168.620499,160.242279 180.436478,150.353043 
	C185.783569,153.920609 190.733459,157.104599 195.512207,160.527542 
	C196.314560,161.102264 196.805634,162.745605 196.718307,163.837433 
	C192.484558,216.772949 214.082169,256.740295 257.789276,285.589630 
	C263.338501,289.252472 269.225861,292.400208 274.815399,296.005463 
	C287.734161,304.338104 287.347839,317.510101 273.672211,324.383881 
	C258.585510,331.966919 243.965225,340.114166 232.120544,352.403839 
	C208.881210,376.516235 196.555756,405.092010 197.216324,438.848114 
	C197.290817,442.654480 197.745728,446.525726 198.623749,450.224579 
	C199.584808,454.273193 197.905411,455.998444 194.393860,457.253571 
	C178.872986,462.801056 170.119812,460.679932 159.217697,448.497406 
	C131.022461,416.990631 114.974998,379.891632 109.464417,338.253540 
	C103.027229,289.614014 111.790855,243.802490 136.861877,201.394821 
	C140.158691,195.818237 144.084259,190.613373 147.930603,184.948212 
z"/>
<path fill="#17252F" opacity="1.000000" stroke="none" 
	d="
M345.035248,428.960175 
	C373.414764,454.389038 404.585114,469.319519 449.293549,478.553955 
	C446.889648,479.622314 445.597565,480.494293 444.187073,480.778290 
	C425.796570,484.481018 409.162048,492.967773 391.832214,499.621124 
	C337.843140,520.348877 283.791260,519.961365 230.007751,498.570465 
	C221.977966,495.376831 214.341599,491.152771 206.227783,488.223907 
	C198.921463,485.586609 191.191223,484.138123 183.686890,482.026917 
	C181.202225,481.327911 178.838562,480.198730 175.216751,478.802521 
	C183.110962,477.152130 189.755569,476.194214 196.146408,474.354614 
	C229.537262,464.743164 258.623596,447.410065 284.440796,424.382996 
	C289.407776,419.952789 294.138733,415.258118 298.985046,410.692322 
	C299.952728,409.780640 300.890411,408.822449 301.943085,408.018097 
	C308.821838,402.762207 314.284271,404.399719 318.495941,411.925537 
	C323.991455,421.745270 329.396545,431.780670 336.236786,440.645966 
	C347.945312,455.820892 363.966827,465.725372 381.233459,473.634247 
	C381.740814,473.866638 382.396667,473.775024 384.161011,473.953857 
	C372.776520,464.348267 361.635864,456.125610 351.951599,446.445892 
	C342.288879,436.787689 334.085449,425.669556 325.812561,414.592773 
	C330.668213,414.570343 332.627411,418.574554 335.646790,420.957031 
	C338.780609,423.429840 341.712799,426.158234 345.035248,428.960175 
M331.226501,480.631012 
	C334.479034,479.675568 336.718445,477.604614 335.753296,474.159698 
	C335.218262,472.250000 333.446533,470.036621 331.668640,469.273956 
	C328.829712,468.056274 326.079132,469.225189 324.978577,472.480377 
	C323.684540,476.307739 325.612701,479.083252 331.226501,480.631012 
z"/>
<path fill="#182630" opacity="1.000000" stroke="none" 
	d="
M335.819824,285.794800 
	C321.757080,296.179779 314.436493,309.332489 314.917389,326.958893 
	C315.462524,346.941071 315.035919,366.949768 315.031006,386.946930 
	C315.030823,387.780151 315.299133,388.753754 314.961823,389.417877 
	C314.217834,390.882599 313.166687,392.191315 312.240875,393.563721 
	C311.187683,392.141632 309.913452,390.825317 309.163544,389.258057 
	C308.707581,388.305206 309.053467,386.965088 309.051910,385.798920 
	C309.025391,366.134949 308.582550,346.460114 309.094849,326.810150 
	C309.595306,307.615143 300.628235,294.176208 285.405151,283.959320 
	C273.948914,276.270538 261.479584,269.757141 251.165436,260.765625 
	C224.062744,237.138321 209.790421,207.402390 212.948044,170.663361 
	C213.200119,167.730408 212.456345,163.620941 217.838852,163.682510 
	C221.445312,163.723785 223.077515,164.421829 222.260971,168.521179 
	C220.381577,177.956406 220.632889,187.405548 223.138840,196.736877 
	C223.779297,199.121719 224.567169,201.466965 225.128922,203.310577 
	C233.513992,203.310577 241.478271,202.813110 249.358902,203.413544 
	C266.056519,204.685760 281.243439,211.361969 296.457550,217.711670 
	C316.290771,225.989212 336.584167,231.087189 358.263092,227.208069 
	C372.733612,224.618805 385.441528,218.409912 396.166199,208.331528 
	C397.563324,207.018585 398.830017,205.204132 399.358917,203.389343 
	C402.602356,192.260437 404.404572,180.989777 402.128632,169.365448 
	C401.713013,167.242599 400.122406,164.097122 404.460266,163.737625 
	C407.940948,163.449173 410.687134,163.330460 411.342865,168.330872 
	C414.829865,194.923965 406.760040,218.272705 392.113373,239.926636 
	C380.915802,256.481323 365.396423,268.045471 348.408020,277.947968 
	C344.240784,280.377045 340.207825,283.036530 335.819824,285.794800 
M289.454437,238.441162 
	C285.135468,240.173660 283.584930,243.073242 285.975372,245.664307 
	C287.111267,246.895538 289.485199,247.828247 291.060089,247.549637 
	C292.371429,247.317673 294.511261,244.704025 294.218414,243.873932 
	C293.511200,241.869095 291.595917,240.290405 289.454437,238.441162 
z"/>
<path fill="#15252F" opacity="1.000000" stroke="none" 
	d="
M300.000336,107.495544 
	C340.495972,107.477470 380.491577,107.449799 420.487183,107.466446 
	C422.802948,107.467407 425.192169,107.531601 427.418915,108.083771 
	C432.004852,109.220963 435.354736,113.678223 435.545776,118.355469 
	C435.724335,122.727493 432.286896,127.559090 427.876404,128.994690 
	C426.319855,129.501343 424.692657,129.790985 423.120453,130.174149 
	C424.906250,142.596695 421.057556,147.133698 408.487946,147.149155 
	C343.326477,147.229263 278.164917,147.249466 213.003387,147.254791 
	C204.007080,147.255524 200.034515,142.711578 200.850922,133.651733 
	C200.938751,132.677109 201.023605,131.702209 201.099625,130.843018 
	C198.511490,129.725861 195.907822,129.009903 193.767776,127.593460 
	C189.285980,124.627083 187.666168,119.898239 189.293213,114.928810 
	C190.874481,110.099136 194.462784,107.693771 199.511505,107.676895 
	C216.342560,107.620636 233.173828,107.637619 250.004990,107.609718 
	C266.503418,107.582375 283.001862,107.534500 300.000336,107.495544 
z"/>
<path fill="#1F3139" opacity="1.000000" stroke="none" 
	d="
M243.268112,364.267975 
	C251.723846,355.517517 261.562897,349.380096 272.129120,344.314575 
	C273.617950,343.600800 275.326569,342.555206 276.780884,342.757843 
	C278.635529,343.016296 280.768646,344.036346 281.907379,345.438263 
	C282.429413,346.080933 281.132507,348.616974 280.159515,349.920441 
	C279.440887,350.883148 277.920319,351.257812 276.741882,351.865021 
	C251.114975,365.069885 232.946121,384.478119 225.784943,413.063263 
	C225.463318,414.347137 225.286057,415.982361 224.418213,416.738861 
	C223.175980,417.821686 221.180283,419.024475 219.839630,418.717987 
	C218.631607,418.441803 216.956177,416.114563 217.079208,414.846375 
	C217.525528,410.246185 218.095703,405.521057 219.604752,401.186157 
	C224.488312,387.157776 232.302399,374.881805 243.268112,364.267975 
z"/>
<path fill="#212E36" opacity="1.000000" stroke="none" 
	d="
M407.500641,411.484924 
	C408.341675,414.918701 408.173523,417.987518 404.665131,418.724121 
	C400.753052,419.545593 399.828156,416.289642 399.012848,413.254852 
	C391.410522,384.956573 373.642365,365.168976 347.774261,352.188934 
	C346.883057,351.741699 345.576965,351.594269 345.131836,350.886932 
	C343.940277,348.993439 343.112152,346.871185 342.139648,344.839813 
	C344.267181,344.139740 347.058228,342.208313 348.414642,342.939270 
	C357.296295,347.725281 366.634949,352.144836 374.382629,358.454376 
	C391.168396,372.124237 402.948639,389.432098 407.500641,411.484924 
z"/>
<path fill="#E1E6E9" opacity="1.000000" stroke="none" 
	d="
M330.852753,480.668579 
	C325.612701,479.083252 323.684540,476.307739 324.978577,472.480377 
	C326.079132,469.225189 328.829712,468.056274 331.668640,469.273956 
	C333.446533,470.036621 335.218262,472.250000 335.753296,474.159698 
	C336.718445,477.604614 334.479034,479.675568 330.852753,480.668579 
z"/>
<path fill="#E0E7EB" opacity="1.000000" stroke="none" 
	d="
M289.811066,238.490540 
	C291.595917,240.290405 293.511200,241.869095 294.218414,243.873932 
	C294.511261,244.704025 292.371429,247.317673 291.060089,247.549637 
	C289.485199,247.828247 287.111267,246.895538 285.975372,245.664307 
	C283.584930,243.073242 285.135468,240.173660 289.811066,238.490540 
z"/>
</svg>