<svg version="1.1" id="Layer_1" xmlns="http://www.w3.org/2000/svg" xmlns:xlink="http://www.w3.org/1999/xlink" x="0px" y="0px"
	 width="100%" viewBox="0 0 2048 2048" enable-background="new 0 0 2048 2048" xml:space="preserve">
<path fill="#FDFFFF" opacity="1.000000" stroke="none" 
	d="
M1376.000000,2049.000000 
	C918.833313,2049.000000 462.166656,2048.994873 5.500020,2049.093018 
	C1.750956,2049.093750 0.906760,2048.249023 0.907291,2044.500000 
	C1.003598,1364.833374 1.003598,685.166687 0.907291,5.500014 
	C0.906760,1.751005 1.751002,0.906758 5.500013,0.907289 
	C685.166687,1.003617 1364.833374,1.003617 2044.500000,0.907289 
	C2048.249023,0.906758 2049.093262,1.751003 2049.092773,5.500013 
	C2048.996338,685.166687 2048.996338,1364.833374 2049.092773,2044.500000 
	C2049.093262,2048.249023 2048.249268,2049.095215 2044.500000,2049.093506 
	C1821.833374,2048.989014 1599.166626,2049.000000 1376.000000,2049.000000 
z"/>
<path fill="#14232E" opacity="1.000000" stroke="none" 
	d="
M1216.605835,450.903748 
	C1237.892578,456.832062 1257.757935,465.379822 1277.424438,474.318451 
	C1321.077393,494.159271 1361.888062,518.737549 1399.656250,548.371033 
	C1445.662842,584.468506 1486.035156,625.970947 1520.983887,672.856384 
	C1553.996948,717.145142 1580.173218,765.189148 1601.033203,816.609314 
	C1606.480347,831.601501 1611.583618,846.329895 1616.457764,861.152649 
	C1621.810303,877.430298 1625.502441,894.089478 1629.550659,910.693237 
	C1634.707397,931.844666 1637.932495,953.316772 1640.592896,974.848816 
	C1642.687500,991.802612 1644.119751,1008.875305 1644.445557,1025.995972 
	C1644.853516,1047.441040 1644.284668,1068.879395 1643.991089,1090.319580 
	C1643.972778,1091.660522 1643.886597,1092.979614 1643.294434,1094.666138 
	C1643.153442,1095.523315 1643.108521,1095.956299 1642.978760,1096.704834 
	C1641.493652,1100.066528 1643.836182,1103.334351 1642.276367,1106.736572 
	C1642.165649,1107.528931 1642.118652,1107.959473 1641.987549,1108.704102 
	C1641.202393,1127.586426 1637.406616,1145.765747 1634.961182,1164.548584 
	C1632.392456,1182.274414 1628.194092,1199.219482 1623.878418,1216.125488 
	C1606.765869,1283.158936 1578.834351,1345.365723 1540.346436,1402.852295 
	C1498.768799,1464.953735 1447.868652,1517.973755 1386.885986,1561.314087 
	C1331.589233,1600.613525 1271.586426,1630.293945 1206.751221,1650.147827 
	C1172.633789,1660.595337 1137.829834,1668.182861 1102.425659,1672.565796 
	C1060.654297,1677.736694 1018.726868,1678.513672 976.730103,1675.334351 
	C934.761841,1672.157227 893.481506,1665.148682 853.093140,1653.248169 
	C796.725830,1636.639038 743.566101,1612.977783 693.745789,1581.629395 
	C652.648926,1555.770142 615.061279,1525.729614 580.966553,1490.802490 
	C574.413513,1482.910522 567.901001,1475.387085 561.113525,1468.100952 
	C548.389160,1454.441895 537.180725,1439.541016 525.937378,1424.684326 
	C501.438873,1392.312622 481.393280,1357.253540 464.459290,1320.451172 
	C453.255341,1296.101318 443.534302,1271.174683 435.876312,1245.369995 
	C428.666565,1221.075562 422.445526,1196.574463 417.291321,1171.818848 
	C414.655029,1159.156738 413.299316,1146.190308 411.776001,1133.298096 
	C410.001465,1118.279663 407.520691,1103.328125 406.965973,1088.196899 
	C406.484497,1075.062378 405.941071,1061.926758 405.960480,1048.771118 
	C405.987183,1030.641235 405.502441,1012.512024 407.325958,994.423096 
	C409.915588,968.734253 414.083344,943.271729 419.056885,917.973145 
	C423.998901,892.834961 430.924652,868.144836 439.278381,843.920166 
	C447.456238,820.205566 457.091400,797.049683 467.765778,773.901428 
	C475.878387,756.305664 485.073914,739.736755 494.919373,723.531433 
	C535.273193,657.110168 585.772522,599.623291 646.560608,551.147522 
	C698.706299,509.563751 756.800171,478.854828 819.620117,455.993652 
	C831.465332,453.175415 842.522278,449.011078 853.853455,445.734467 
	C888.900208,435.600037 924.476196,428.137177 960.731506,423.989594 
	C987.720581,420.902069 1014.826172,419.821625 1041.947754,420.643524 
	C1085.276123,421.956573 1128.029175,427.991364 1170.176514,438.113831 
	C1185.651978,441.830536 1200.835815,446.660004 1216.605835,450.903748 
z"/>
<path fill="#182227" opacity="1.000000" stroke="none" 
	d="
M467.579468,773.734863 
	C467.946259,779.261536 464.705170,783.907349 462.478455,788.811096 
	C455.769958,803.584900 450.428070,818.876221 444.492828,833.936951 
	C437.543945,851.569885 432.941071,869.774048 427.597107,887.815125 
	C420.157928,912.929565 416.376190,938.831482 412.380371,964.600525 
	C410.212891,978.578613 408.503113,992.732971 407.715454,1006.999817 
	C406.658386,1026.147583 406.658173,1045.282349 407.241760,1064.361572 
	C407.898132,1085.819092 409.145996,1107.277710 412.638763,1128.615601 
	C415.007141,1143.084595 416.058624,1157.852539 418.781494,1172.276611 
	C422.371704,1191.294922 427.007294,1210.126221 432.419678,1228.731079 
	C438.994781,1251.332764 445.875854,1273.800781 455.093506,1295.552002 
	C463.857056,1316.231567 473.323486,1336.548218 483.801239,1356.380249 
	C491.239929,1370.459717 499.721710,1383.955811 508.474915,1397.279541 
	C511.919830,1402.523315 514.888672,1408.084839 518.685364,1413.115601 
	C524.766846,1421.174194 530.360291,1429.658691 537.012573,1437.212280 
	C543.603638,1444.696411 548.968445,1453.106567 555.779541,1460.403076 
	C563.697510,1468.885132 571.220032,1477.736084 578.924194,1486.418091 
	C579.802063,1487.407349 580.917664,1488.237183 580.862976,1490.131836 
	C563.779358,1473.833008 548.473328,1455.616333 533.784546,1436.856201 
	C513.200989,1410.567627 495.428345,1382.464600 479.439362,1353.184082 
	C452.799347,1304.398315 434.134857,1252.629883 421.321655,1198.272583 
	C421.208984,1197.477539 421.101868,1197.062378 421.009308,1196.316406 
	C418.836823,1189.651001 417.889191,1183.035278 416.634460,1176.113037 
	C416.863464,1174.900024 416.149628,1174.325073 416.079956,1173.281372 
	C415.479431,1170.229126 414.881470,1167.463867 414.331665,1164.286499 
	C414.234497,1163.479980 414.134979,1163.074585 414.096649,1162.342285 
	C413.776001,1160.572632 413.447021,1159.117310 413.176453,1157.291504 
	C413.137665,1156.496948 413.068207,1156.068359 413.006805,1155.310303 
	C412.736755,1153.897583 412.482483,1152.810547 412.285645,1151.304932 
	C412.208862,1150.485352 412.119202,1150.074463 412.078003,1149.337646 
	C411.800842,1147.872314 411.519501,1146.723389 411.305420,1145.223389 
	C411.091248,1144.136230 411.015991,1143.369019 411.033508,1142.298096 
	C410.770630,1140.860962 410.504364,1139.714233 410.308411,1138.218994 
	C410.092834,1137.135620 410.016205,1136.368774 410.033478,1135.297607 
	C409.736053,1133.225708 409.435333,1131.444336 409.212341,1129.281494 
	C409.068573,1128.145264 409.013519,1127.370850 409.019714,1126.297485 
	C408.744690,1124.536621 408.469879,1123.067749 408.284424,1121.233398 
	C407.848450,1119.478638 408.088654,1118.019043 407.962952,1116.283569 
	C407.674133,1114.527222 407.404663,1113.078369 407.211731,1111.265869 
	C407.072052,1110.150391 407.013733,1109.382446 407.066742,1108.314941 
	C406.756287,1104.601074 406.429810,1101.176636 406.183441,1097.330811 
	C405.984314,1095.843262 406.013794,1094.755127 406.041290,1093.342041 
	C405.733490,1088.608154 405.415222,1084.200073 405.192505,1079.345459 
	C404.854004,1077.177368 405.044769,1075.427368 405.078857,1073.359375 
	C403.849487,1046.708374 404.119537,1020.377808 406.344086,994.138123 
	C409.828583,953.037109 417.385956,912.628479 428.973785,873.022217 
	C438.948486,838.929565 451.653046,805.872314 467.579468,773.734863 
z"/>
<path fill="#182227" opacity="1.000000" stroke="none" 
	d="
M1216.783691,450.644318 
	C1212.222778,452.992615 1208.209717,449.643982 1203.935303,448.675354 
	C1194.923096,446.633087 1186.159546,443.519196 1177.190674,441.254822 
	C1162.779663,437.616577 1148.207397,434.687531 1133.603760,431.904449 
	C1119.635010,429.242371 1105.524292,427.714355 1091.454468,425.789032 
	C1063.378418,421.946991 1035.213989,421.474854 1007.021362,422.140686 
	C987.863281,422.593140 968.720520,423.664917 949.679138,426.684875 
	C935.324280,428.961578 920.930481,431.010651 906.697815,433.939850 
	C882.851990,438.847534 859.273071,444.816071 836.103821,452.375671 
	C830.990906,454.043884 825.986267,456.356018 820.226013,456.264252 
	C838.005066,449.018250 856.560608,443.821533 875.211975,438.939087 
	C934.292542,423.473419 994.335693,417.011444 1055.333862,420.185974 
	C1100.540649,422.538635 1145.022705,429.622833 1188.609985,441.985962 
	C1197.958740,444.637665 1207.223145,447.586182 1216.783691,450.644318 
z"/>
<path fill="#172023" opacity="1.000000" stroke="none" 
	d="
M1643.539917,1094.930176 
	C1641.338135,1092.793457 1643.161011,1090.384644 1643.112671,1088.042236 
	C1642.861816,1075.889160 1642.999878,1063.727905 1642.999756,1051.569580 
	C1642.999634,1039.161133 1643.725708,1026.699097 1642.821167,1014.356873 
	C1641.518188,996.577881 1640.107300,978.797180 1637.395630,961.109497 
	C1635.166260,946.567139 1633.408936,931.954468 1629.963867,917.641541 
	C1624.510132,894.983276 1619.793457,872.163269 1611.854980,850.109192 
	C1607.954468,839.272827 1603.537598,828.558350 1600.781006,817.188477 
	C1607.882080,831.071533 1612.301270,846.048096 1617.111938,860.879150 
	C1630.293335,901.517700 1638.368652,943.234375 1642.714355,985.659729 
	C1646.348877,1021.142578 1646.685913,1056.729980 1644.295532,1092.329590 
	C1644.240479,1093.148682 1644.023193,1093.956787 1643.539917,1094.930176 
z"/>
<path fill="#172023" opacity="1.000000" stroke="none" 
	d="
M1635.087891,1164.631836 
	C1633.457642,1159.575928 1635.327148,1154.344727 1636.153076,1149.168213 
	C1638.250732,1136.020874 1639.861328,1122.823242 1641.630981,1109.311279 
	C1642.518799,1127.782593 1638.341919,1145.968628 1635.087891,1164.631836 
z"/>
<path fill="#172023" opacity="1.000000" stroke="none" 
	d="
M1642.530884,1106.967773 
	C1640.829590,1103.907104 1642.374146,1100.761597 1642.627686,1097.306030 
	C1642.802124,1100.292236 1643.966797,1103.569946 1642.530884,1106.967773 
z"/>
<path fill="#1E2B32" opacity="1.000000" stroke="none" 
	d="
M404.991486,1073.347168 
	C406.608917,1074.656006 405.999054,1076.531738 405.515747,1078.632080 
	C405.151306,1077.153198 405.014526,1075.407104 404.991486,1073.347168 
z"/>
<path fill="#1E2B32" opacity="1.000000" stroke="none" 
	d="
M407.824280,1116.272461 
	C409.527649,1117.176025 409.022034,1118.782959 408.583069,1120.602051 
	C408.150818,1119.435059 407.927887,1118.001953 407.824280,1116.272461 
z"/>
<path fill="#1E2B32" opacity="1.000000" stroke="none" 
	d="
M405.941833,1093.282715 
	C407.305969,1093.964600 407.128021,1095.185547 406.484833,1096.681152 
	C406.119629,1095.789185 405.975739,1094.669067 405.941833,1093.282715 
z"/>
<path fill="#1E2B32" opacity="1.000000" stroke="none" 
	d="
M408.912292,1126.237305 
	C410.020996,1126.622437 410.135162,1127.484009 409.498260,1128.697754 
	C409.128387,1128.089844 408.966705,1127.279419 408.912292,1126.237305 
z"/>
<path fill="#1E2B32" opacity="1.000000" stroke="none" 
	d="
M406.975586,1108.254395 
	C408.045959,1108.663452 408.135651,1109.520142 407.495972,1110.704590 
	C407.148346,1110.095825 407.008362,1109.289673 406.975586,1108.254395 
z"/>
<path fill="#1E2B32" opacity="1.000000" stroke="none" 
	d="
M409.924316,1135.236938 
	C411.023651,1135.600586 411.126495,1136.457031 410.571503,1137.661133 
	C410.189789,1137.069214 410.000824,1136.267944 409.924316,1135.236938 
z"/>
<path fill="#1E2B32" opacity="1.000000" stroke="none" 
	d="
M410.931427,1142.240112 
	C412.021057,1142.603882 412.125397,1143.459839 411.566101,1144.663574 
	C411.190460,1144.072510 411.008209,1143.272461 410.931427,1142.240112 
z"/>
<path fill="#1E2B32" opacity="1.000000" stroke="none" 
	d="
M411.977051,1149.200562 
	C412.757355,1149.348145 413.070831,1149.820435 412.522919,1150.726440 
	C412.186005,1150.384277 412.028931,1149.882080 411.977051,1149.200562 
z"/>
<path fill="#1E2B32" opacity="1.000000" stroke="none" 
	d="
M420.886963,1196.181885 
	C421.684509,1196.297241 422.052399,1196.753296 421.527130,1197.713135 
	C421.162445,1197.379028 420.975525,1196.873779 420.886963,1196.181885 
z"/>
<path fill="#1E2B32" opacity="1.000000" stroke="none" 
	d="
M415.988251,1173.276855 
	C416.854797,1173.514038 417.011902,1174.263306 416.777954,1175.424805 
	C416.425903,1175.002930 416.162506,1174.281006 415.988251,1173.276855 
z"/>
<path fill="#1E2B32" opacity="1.000000" stroke="none" 
	d="
M414.000549,1162.206543 
	C414.771088,1162.348755 415.071869,1162.818726 414.553497,1163.713379 
	C414.218567,1163.378052 414.057343,1162.881592 414.000549,1162.206543 
z"/>
<path fill="#1E2B32" opacity="1.000000" stroke="none" 
	d="
M412.894928,1155.227051 
	C413.768494,1155.344360 414.151550,1155.844604 413.414856,1156.800293 
	C413.089508,1156.437134 412.944183,1155.953125 412.894928,1155.227051 
z"/>
<path fill="#FCFDFD" opacity="1.000000" stroke="none" 
	d="
M774.290161,1524.162598 
	C758.076782,1514.624268 742.064331,1505.461548 726.712280,1495.182861 
	C664.076111,1453.246094 612.082642,1400.994751 572.593994,1336.578003 
	C541.071777,1285.156982 518.723206,1229.986816 505.747040,1171.116699 
	C492.184204,1109.584839 488.553741,1047.379517 496.235992,984.815063 
	C505.126678,912.409119 528.030457,844.536865 564.478699,781.243713 
	C595.648621,727.116455 634.986938,679.925110 683.091980,640.062378 
	C686.291992,637.410645 688.992798,634.164307 692.665955,632.074646 
	C695.287476,630.583191 693.796570,628.595825 693.147766,626.844482 
	C689.538940,617.103149 686.932556,607.226562 687.164551,596.674011 
	C687.888489,563.745605 716.839661,533.850342 749.728821,532.990662 
	C777.397949,532.267395 805.067505,533.706238 832.646118,535.656677 
	C846.340027,536.625244 859.048462,533.974487 871.933167,530.494690 
	C925.603455,516.000000 980.187378,508.083099 1035.844971,509.375854 
	C1088.715820,510.603882 1140.624023,518.769836 1191.460083,533.404175 
	C1199.328003,535.669189 1207.192627,535.960632 1215.201294,535.541626 
	C1241.164551,534.183533 1267.134155,532.988647 1293.131836,532.549622 
	C1338.270264,531.787292 1371.177979,574.841187 1358.625366,618.208008 
	C1357.746826,621.243347 1357.230835,624.466431 1355.835938,627.245789 
	C1354.509521,629.888672 1355.499268,630.964722 1357.364258,632.532349 
	C1377.652466,649.584290 1397.407349,667.192078 1415.513184,686.619934 
	C1450.318726,723.966919 1478.261475,765.929199 1501.057373,811.510742 
	C1527.078491,863.541870 1544.051636,918.326721 1552.351807,975.865784 
	C1558.937134,1021.517761 1558.901611,1067.261353 1553.586914,1112.964966 
	C1545.597046,1181.672974 1525.559448,1246.839233 1493.413086,1308.073242 
	C1463.587036,1364.887695 1424.142822,1414.164429 1375.292725,1455.937988 
	C1330.380737,1494.344238 1281.026733,1525.385986 1226.159546,1547.477051 
	C1206.404663,1555.431030 1186.289062,1562.379028 1165.340698,1568.036987 
	C1158.777588,1571.640015 1151.682983,1572.064331 1144.997437,1573.735352 
	C1136.682983,1575.813599 1128.311157,1577.921753 1119.336426,1578.872681 
	C1118.494629,1578.786377 1118.061890,1578.742432 1117.316772,1578.806641 
	C1112.820801,1581.320679 1108.025513,1581.317017 1103.497803,1581.831909 
	C1094.127930,1582.897461 1084.755493,1584.001099 1075.410156,1585.220459 
	C1067.801514,1586.213135 1060.161499,1586.516235 1052.549072,1586.880005 
	C1024.427246,1588.223877 996.342712,1587.578857 968.358948,1584.117798 
	C965.564514,1583.772217 962.712830,1583.814575 959.464600,1583.223145 
	C958.579590,1583.053589 958.148132,1582.991089 957.392944,1582.875488 
	C955.534363,1583.136108 954.222534,1581.607666 952.328796,1582.198853 
	C951.284058,1582.036011 950.554016,1581.960938 949.459717,1581.833252 
	C945.812805,1582.200317 942.745300,1581.168945 939.323242,1580.238037 
	C938.588318,1580.011475 938.171997,1579.926147 937.437500,1579.801270 
	C934.449524,1580.044556 931.966614,1579.455811 929.319458,1578.084351 
	C928.280090,1577.959839 927.556946,1577.908813 926.473755,1577.814941 
	C920.436768,1577.446899 914.918274,1576.391235 909.320801,1574.095215 
	C908.578247,1573.943848 908.160889,1573.897583 907.431885,1573.804932 
	C878.446594,1567.179321 850.550903,1558.187622 823.280518,1547.148804 
	C808.790405,1541.283325 794.503662,1535.011597 780.539795,1527.994263 
	C778.456787,1526.947510 776.396973,1525.869629 774.290161,1524.162598 
z"/>
<path fill="#131C21" opacity="1.000000" stroke="none" 
	d="
M959.213257,1583.445068 
	C965.193115,1582.030640 971.221191,1583.727905 977.306763,1584.209595 
	C1012.654236,1587.008423 1047.975952,1587.665649 1083.250977,1583.277344 
	C1094.229614,1581.911743 1105.181396,1580.331909 1116.574951,1578.882568 
	C1113.530884,1582.986206 1108.396118,1582.211304 1104.005249,1582.845459 
	C1089.965332,1584.872925 1075.865112,1587.079712 1061.723999,1587.662476 
	C1043.040405,1588.432373 1024.332397,1590.473267 1005.568970,1588.209229 
	C997.859680,1587.279175 990.002136,1587.641357 982.256470,1586.931152 
	C974.609009,1586.229858 966.862366,1586.013916 959.213257,1583.445068 
z"/>
<path fill="#131C21" opacity="1.000000" stroke="none" 
	d="
M774.072754,1524.231812 
	C793.492859,1533.707520 813.394775,1542.525024 833.768127,1550.259644 
	C856.805359,1559.005615 880.229309,1566.520874 904.265808,1572.048218 
	C905.203125,1572.263672 906.070740,1572.782471 907.045532,1573.459351 
	C906.302307,1575.249512 905.205383,1574.440674 904.102356,1574.190918 
	C884.875793,1569.839233 866.020813,1564.272095 847.377625,1557.834473 
	C832.674744,1552.757324 818.283813,1546.948242 804.035645,1540.791748 
	C795.067444,1536.916748 786.440491,1532.242310 777.729065,1527.792358 
	C776.338501,1527.082031 774.711548,1526.323242 774.072754,1524.231812 
z"/>
<path fill="#131C21" opacity="1.000000" stroke="none" 
	d="
M1119.151855,1579.136475 
	C1127.133789,1576.944214 1135.346313,1575.083618 1143.544922,1573.163940 
	C1150.441162,1571.548950 1157.321411,1569.865479 1164.598389,1568.208008 
	C1162.987793,1572.217041 1158.887695,1571.398560 1155.540527,1572.295288 
	C1144.230957,1575.325806 1132.743896,1577.547485 1121.252441,1579.741211 
	C1120.667603,1579.852905 1120.003662,1579.551514 1119.151855,1579.136475 
z"/>
<path fill="#131C21" opacity="1.000000" stroke="none" 
	d="
M909.063232,1574.359009 
	C913.173523,1573.755493 916.948853,1575.688110 920.932312,1576.463867 
	C922.591248,1576.786987 924.468933,1575.965576 926.031982,1577.485107 
	C924.453430,1580.063599 922.542236,1578.485840 920.718750,1578.110718 
	C916.765137,1577.297607 912.603149,1577.191040 909.063232,1574.359009 
z"/>
<path fill="#131C21" opacity="1.000000" stroke="none" 
	d="
M939.080872,1580.459961 
	C942.402222,1579.454590 945.506470,1581.510010 948.983276,1581.475098 
	C945.508972,1584.301147 942.330139,1582.592407 939.080872,1580.459961 
z"/>
<path fill="#131C21" opacity="1.000000" stroke="none" 
	d="
M929.068909,1578.375122 
	C931.654541,1578.399048 934.305786,1578.787354 937.038208,1579.468628 
	C934.097961,1582.231323 931.667725,1580.083374 929.068909,1578.375122 
z"/>
<path fill="#131C21" opacity="1.000000" stroke="none" 
	d="
M952.232666,1582.358398 
	C953.637695,1581.551636 955.249939,1581.429321 956.953613,1582.529297 
	C955.430176,1584.873535 953.989502,1582.701050 952.232666,1582.358398 
z"/>
<path fill="#FDFFFF" opacity="1.000000" stroke="none" 
	d="
M416.492493,930.506470 
	C416.491821,930.486938 416.493195,930.525940 416.492493,930.506470 
z"/>
<path fill="#14232D" opacity="1.000000" stroke="none" 
	d="
M946.840271,1078.877930 
	C936.712219,1087.011597 925.046692,1091.697388 913.926147,1097.317627 
	C841.478577,1133.931885 791.471375,1190.185303 765.757751,1267.364868 
	C755.348511,1298.608276 750.835571,1330.849121 753.049988,1363.873169 
	C753.608948,1372.208496 754.981812,1380.418701 756.727966,1388.559448 
	C757.838806,1393.738647 756.389160,1397.303467 751.432556,1399.395996 
	C733.359558,1407.026123 714.633057,1409.785522 695.251831,1406.378906 
	C687.608643,1405.035522 681.666992,1400.162231 676.309998,1394.833130 
	C645.011292,1363.696655 619.081787,1328.614380 598.752014,1289.380371 
	C572.862366,1239.416626 554.780090,1186.900269 546.370911,1131.161255 
	C537.695679,1073.658569 538.064697,1016.272156 548.495911,959.007568 
	C563.845642,874.740723 599.301331,799.834961 653.861389,733.980713 
	C671.316406,712.912415 690.538818,693.483765 711.738464,676.068970 
	C714.848511,673.514160 716.665039,673.702454 718.941040,676.704102 
	C726.692139,686.926331 736.784546,694.047302 748.644470,698.756104 
	C751.147278,699.749878 752.680481,700.842957 752.191711,704.239563 
	C748.513184,729.804016 748.569885,755.427368 752.641907,780.915527 
	C760.828186,832.155762 779.951355,878.828186 811.973267,919.926025 
	C833.461426,947.504456 859.028625,970.647400 888.105896,990.037537 
	C903.216309,1000.113892 919.055359,1008.974670 934.402344,1018.646362 
	C942.789673,1023.931946 950.473145,1029.931519 954.942810,1039.211914 
	C961.842651,1053.537964 959.342407,1066.432129 946.840271,1078.877930 
z"/>
<path fill="#13232D" opacity="1.000000" stroke="none" 
	d="
M1506.211304,1098.680664 
	C1506.169067,1099.524780 1506.121094,1099.956055 1505.988892,1100.702148 
	C1503.653809,1116.880981 1501.825073,1132.810059 1498.591919,1148.522827 
	C1498.390991,1149.499756 1498.884155,1150.494629 1498.294556,1151.848877 
	C1498.087646,1152.234131 1498.088501,1152.642456 1498.001221,1152.826904 
	C1496.984253,1154.105835 1498.120972,1155.453735 1497.278076,1156.899048 
	C1497.080078,1157.214966 1497.071777,1157.629028 1496.989136,1157.818848 
	C1494.487793,1166.376831 1492.465088,1174.850464 1490.543091,1183.337524 
	C1486.768555,1200.003784 1480.984253,1216.022583 1475.139526,1232.015259 
	C1466.011841,1256.991211 1454.570068,1280.902954 1441.486938,1304.045288 
	C1440.103638,1306.491943 1438.260742,1308.703369 1437.273560,1311.810547 
	C1437.122559,1312.167847 1437.059448,1312.077148 1437.113037,1312.090820 
	C1433.230103,1316.798828 1430.046753,1321.970825 1427.237793,1327.797363 
	C1427.069458,1328.107788 1427.013062,1328.033691 1427.057861,1328.046387 
	C1421.177612,1335.605347 1415.172607,1343.094360 1410.224976,1351.770020 
	C1410.042603,1352.072266 1409.997803,1352.015747 1410.032471,1352.026123 
	C1408.904785,1352.982422 1407.911865,1354.058960 1407.197021,1355.750244 
	C1406.590698,1356.619873 1406.182373,1357.241699 1405.510864,1357.974365 
	C1404.219971,1358.559204 1403.831543,1359.531494 1403.183838,1360.693115 
	C1402.570435,1361.562500 1402.166382,1362.203369 1401.498535,1362.962524 
	C1394.080078,1370.085938 1387.777832,1377.843994 1381.225342,1385.838989 
	C1380.300415,1387.052490 1379.548950,1387.961426 1378.518677,1388.978760 
	C1377.101929,1389.744873 1376.278076,1390.742676 1375.253418,1391.975830 
	C1374.290161,1393.125488 1373.486206,1393.994995 1372.394043,1394.950684 
	C1370.264282,1395.845215 1368.720459,1397.039673 1367.287476,1398.887695 
	C1367.106323,1399.162598 1367.066162,1399.056763 1367.114502,1399.086182 
	C1363.904541,1400.763672 1360.760864,1402.622437 1357.275635,1404.562622 
	C1345.050171,1409.499390 1332.770142,1408.237671 1320.536865,1406.534302 
	C1312.458740,1405.409668 1304.455688,1403.804077 1297.221680,1399.636963 
	C1292.950195,1397.176025 1291.359741,1393.951172 1292.317017,1388.867676 
	C1303.309814,1330.493530 1292.574219,1275.541382 1265.251343,1223.502930 
	C1233.986572,1163.956177 1186.527588,1121.469604 1125.997192,1093.031616 
	C1118.918457,1089.706055 1111.859863,1086.321167 1105.481689,1081.696411 
	C1088.953735,1069.712402 1086.169312,1047.793701 1099.175537,1032.065063 
	C1104.910522,1025.129639 1112.351929,1020.355652 1119.893677,1015.772888 
	C1139.093628,1004.106262 1158.741821,993.142029 1176.636963,979.446716 
	C1226.140381,941.561340 1262.764893,894.106873 1283.438477,834.945862 
	C1298.292847,792.437500 1303.850098,748.871094 1297.218262,704.083130 
	C1296.723755,700.743164 1297.720093,699.468201 1300.790771,698.361023 
	C1312.995117,693.960571 1323.028687,686.389954 1330.717773,675.993286 
	C1333.226440,672.601379 1335.067017,673.460999 1337.525391,675.448730 
	C1351.933350,687.098206 1365.149780,700.021912 1377.898926,713.426270 
	C1383.061157,718.853943 1387.887695,724.600891 1392.964600,730.516113 
	C1394.122192,733.704468 1396.517700,735.477173 1398.856689,737.720093 
	C1399.129272,737.918884 1399.031982,737.958679 1399.059814,737.914062 
	C1399.779419,739.783936 1401.072632,741.246033 1402.862671,742.727417 
	C1403.128540,742.920288 1403.031616,742.958374 1403.059326,742.914246 
	C1403.687744,744.265259 1404.375610,745.599915 1405.910645,746.705444 
	C1406.187378,746.872253 1406.074097,746.917603 1406.106323,746.865784 
	C1407.716797,750.127441 1409.928467,752.974426 1412.809326,755.740723 
	C1413.069336,755.961243 1412.998535,755.985352 1413.021240,755.955688 
	C1414.520020,759.716797 1417.349121,762.612366 1419.620239,765.878235 
	C1436.070679,789.535278 1450.698120,814.298523 1462.792847,840.426941 
	C1471.939941,860.187561 1479.462036,880.598694 1485.885986,901.503418 
	C1491.108765,918.500122 1495.703125,935.586304 1499.289551,952.942017 
	C1503.125610,971.506348 1505.282349,990.339539 1507.046631,1009.221375 
	C1509.313110,1033.480225 1508.363647,1057.766113 1507.792480,1082.032349 
	C1507.666748,1087.380249 1506.545044,1092.829590 1506.211304,1098.680664 
z"/>
<path fill="#14232D" opacity="1.000000" stroke="none" 
	d="
M1213.468506,1448.142578 
	C1146.395996,1408.919922 1091.469116,1357.747314 1052.201660,1290.400513 
	C1054.213379,1289.170288 1055.011475,1290.989868 1056.057739,1292.038086 
	C1110.526611,1346.603516 1171.139648,1392.395752 1242.553345,1422.802734 
	C1269.091431,1434.102295 1296.231323,1443.435669 1324.777954,1448.176147 
	C1330.349121,1449.101318 1336.005981,1449.519531 1341.628174,1450.126465 
	C1344.414795,1450.427490 1347.285522,1450.359253 1349.711914,1452.156250 
	C1348.889526,1454.177612 1347.002441,1454.229980 1345.549927,1454.732422 
	C1327.310181,1461.042236 1309.007446,1467.167358 1289.797607,1469.886719 
	C1283.584839,1470.766235 1278.108032,1473.258667 1272.585693,1476.143066 
	C1239.890991,1493.219482 1205.723145,1506.636353 1170.268066,1516.823120 
	C1119.520264,1531.403564 1067.855957,1539.032593 1014.970642,1538.050415 
	C966.821899,1537.156128 919.949707,1528.828979 873.981079,1514.771606 
	C838.865417,1504.032959 805.016724,1490.184326 772.187439,1473.804199 
	C763.475159,1469.457153 753.885681,1469.097412 744.647034,1467.121704 
	C730.783691,1464.157104 717.239807,1460.203125 704.414673,1454.057007 
	C703.185303,1453.468018 700.884583,1453.341675 701.342468,1451.490112 
	C701.786377,1449.694580 703.901184,1450.696045 705.250732,1450.626221 
	C719.461548,1449.891724 733.295654,1447.016846 746.982849,1443.337769 
	C800.397034,1428.979370 848.952576,1404.250977 894.974854,1374.070923 
	C931.094116,1350.385010 963.210876,1321.952148 993.667603,1291.506470 
	C999.454346,1285.721802 1005.564697,1280.315796 1014.026428,1278.620972 
	C1024.621216,1276.498779 1032.324829,1279.935669 1037.187378,1289.622803 
	C1040.840698,1296.901123 1043.749390,1304.556519 1047.468750,1311.797852 
	C1075.901733,1367.154175 1119.300659,1406.946411 1175.010864,1433.782349 
	C1187.136963,1439.623535 1199.645874,1444.609253 1212.700928,1449.251465 
	C1216.375977,1449.580566 1219.067383,1451.638184 1222.238647,1452.360229 
	C1219.364136,1451.049438 1216.098877,1450.619385 1213.468506,1448.142578 
z"/>
<path fill="#15232E" opacity="1.000000" stroke="none" 
	d="
M1172.726318,846.128906 
	C1184.273804,840.151611 1195.688965,834.789978 1205.956787,827.273071 
	C1212.825562,822.244507 1218.756836,816.169556 1225.403076,810.912903 
	C1228.493164,808.468811 1230.117188,805.116516 1231.154419,801.330994 
	C1237.059082,779.781311 1242.283447,758.142456 1240.049561,735.511353 
	C1239.596802,730.924072 1238.699341,726.380676 1238.064087,721.409363 
	C1238.548462,720.623352 1239.036865,720.358582 1240.004639,720.189575 
	C1242.459839,720.476868 1242.962769,722.075256 1243.390259,723.721680 
	C1243.682617,724.847595 1244.076904,725.986572 1244.075562,727.137268 
	C1244.059814,740.025452 1246.100586,752.848450 1243.364502,765.821594 
	C1240.794556,778.006287 1238.855591,790.306335 1234.922363,802.172058 
	C1233.761719,805.673462 1232.248291,808.889160 1229.937378,811.838135 
	C1226.866821,815.756653 1227.161133,817.731384 1230.630981,821.320618 
	C1231.673096,822.398560 1233.081665,823.370972 1233.395508,824.793640 
	C1234.411377,829.399963 1237.583862,830.681030 1242.013916,831.016174 
	C1243.040161,835.733215 1240.330200,839.195496 1238.651367,842.777710 
	C1236.213013,847.980652 1233.809448,853.202209 1231.268311,858.787842 
	C1231.108032,859.142151 1231.029175,859.056396 1231.084961,859.073364 
	C1225.611572,866.833008 1220.969971,875.112000 1216.216309,883.740601 
	C1200.310791,907.877808 1180.971191,928.312988 1158.323730,945.656311 
	C1139.918091,959.751282 1119.946777,971.408020 1100.041748,983.172607 
	C1096.321045,985.371765 1092.683838,987.712463 1088.681396,990.062378 
	C1083.843994,992.144958 1079.929443,994.996094 1076.258057,998.781616 
	C1076.023926,999.040894 1076.003784,998.996216 1076.023071,999.011658 
	C1074.246704,999.860535 1072.732788,1001.058594 1071.250244,1002.816895 
	C1071.040405,1003.065186 1071.007935,1002.999023 1071.036987,1003.021729 
	C1062.791504,1008.086670 1057.046509,1015.617004 1051.373535,1023.191101 
	C1048.600342,1026.893799 1045.874756,1030.626221 1043.035034,1034.282104 
	C1040.930908,1036.991089 1040.671875,1040.738159 1038.958130,1043.764282 
	C1037.910767,1045.613892 1037.577271,1047.888306 1035.321289,1049.242920 
	C1032.546997,1046.216797 1030.175781,1045.717896 1027.541016,1049.131592 
	C1026.547607,1050.418823 1024.774414,1050.932983 1023.575073,1052.088135 
	C1021.141235,1054.432373 1019.765015,1057.088013 1021.163391,1060.541870 
	C1022.810120,1064.608887 1022.312134,1068.659668 1020.931152,1073.049072 
	C1019.994019,1075.565186 1020.622070,1077.952881 1019.631104,1080.469971 
	C1019.068237,1081.232910 1018.600220,1081.421997 1017.695984,1081.187256 
	C1015.766968,1041.145508 994.232727,1013.518616 962.795410,991.983032 
	C946.583313,980.877136 928.933472,972.102600 912.574707,961.247925 
	C845.978699,917.058472 803.840637,856.460083 790.574707,777.076721 
	C786.997742,755.672119 787.240417,733.964050 791.664429,712.485535 
	C792.505127,708.404114 794.149658,706.353210 798.599976,706.876892 
	C801.384827,707.204590 804.255737,706.712708 807.077759,706.831726 
	C812.338501,707.053467 813.431763,708.542053 812.653442,713.760864 
	C811.721313,720.011047 810.682983,726.252991 810.010620,732.532776 
	C807.576111,755.270386 810.712891,777.343506 818.249878,798.857666 
	C818.578979,799.797241 818.831604,800.763489 819.141968,802.074585 
	C819.841614,804.540344 821.414001,803.933167 822.834961,803.591003 
	C830.614014,801.717529 838.573792,801.238770 846.501221,800.588135 
	C867.644409,798.852722 888.379639,802.143005 908.649231,807.405945 
	C926.940613,812.155151 945.095337,817.691162 962.578735,825.108826 
	C965.931519,826.531311 968.776794,829.065491 972.918579,829.735535 
	C973.314758,829.879761 973.659546,829.786804 973.821350,829.862427 
	C979.634644,833.434326 985.948425,835.434265 992.038147,837.943787 
	C1012.127625,846.222229 1032.823730,852.785278 1054.128540,856.738953 
	C1074.458130,860.511658 1094.988037,863.337646 1115.895630,860.377563 
	C1126.701050,858.847656 1137.512817,857.516968 1148.140869,855.016479 
	C1156.547241,853.038635 1164.635620,850.113647 1172.726318,846.128906 
z"/>
<path fill="#14242E" opacity="1.000000" stroke="none" 
	d="
M1038.000244,573.499878 
	C1120.972168,573.020752 1203.446411,574.351868 1285.917603,573.164612 
	C1298.103149,572.989197 1307.940552,576.976562 1314.195068,588.260498 
	C1323.353760,604.784058 1309.976562,621.597961 1297.688721,624.818848 
	C1293.839478,625.827881 1289.896484,626.478394 1285.818115,627.330139 
	C1289.410767,634.059326 1290.736694,641.142700 1288.353394,648.494080 
	C1284.697266,659.771667 1275.081177,666.725342 1262.554932,666.967163 
	C1245.564575,667.295227 1228.568359,667.467773 1211.574707,667.474609 
	C1077.615112,667.528320 943.655579,667.528320 809.695984,667.537842 
	C802.033325,667.538391 794.355652,667.773743 786.711060,667.385803 
	C767.833679,666.427856 757.384460,652.486694 761.312805,633.862244 
	C761.553284,632.722351 761.684204,631.506348 762.188904,630.485352 
	C763.554077,627.723633 762.405701,627.211060 759.780029,626.947937 
	C751.319702,626.100220 744.234253,622.492371 738.637817,615.949646 
	C731.862183,608.028259 730.983887,598.961121 734.338562,589.698364 
	C737.743042,580.298279 745.212830,574.981262 755.114136,574.083374 
	C762.888306,573.378357 770.755920,573.595703 778.582153,573.591003 
	C864.888184,573.539673 951.194214,573.525085 1038.000244,573.499878 
z"/>
<path fill="#172731" opacity="1.000000" stroke="none" 
	d="
M1097.644775,1132.725220 
	C1102.022827,1128.545166 1106.670776,1129.217163 1111.442383,1130.870728 
	C1128.290161,1136.709351 1143.475098,1145.816528 1157.742188,1156.162842 
	C1192.484009,1181.356812 1219.723755,1213.035400 1237.603638,1252.328125 
	C1244.255005,1266.944946 1248.879639,1282.224487 1251.287842,1298.113770 
	C1252.321045,1304.930786 1249.321045,1309.695312 1243.845703,1310.848511 
	C1238.790527,1311.913208 1234.036621,1308.766357 1232.101807,1302.371948 
	C1229.307861,1293.138184 1227.034180,1283.763306 1223.583496,1274.712646 
	C1205.637085,1227.642944 1174.011230,1192.065430 1132.033813,1165.068726 
	C1122.474365,1158.920776 1111.957642,1154.647583 1102.042236,1149.212158 
	C1094.936035,1145.316772 1093.562012,1140.238159 1097.644775,1132.725220 
z"/>
<path fill="#142A35" opacity="1.000000" stroke="none" 
	d="
M861.202148,1214.755127 
	C861.008118,1215.370483 860.869629,1215.658936 860.358032,1215.964233 
	C858.590576,1217.326050 857.078857,1218.623047 856.271851,1220.901245 
	C856.174927,1221.218506 856.095276,1221.101807 856.159363,1221.131470 
	C853.999451,1222.451660 852.702576,1224.546509 851.266113,1226.959351 
	C851.090515,1227.246094 851.097412,1227.644409 851.005676,1227.821289 
	C840.933960,1239.954102 833.772217,1253.538208 828.001160,1267.901855 
	C823.548767,1278.983398 819.024231,1290.054932 817.514160,1302.048462 
	C817.261658,1304.053955 816.320312,1305.834717 815.289124,1307.969238 
	C811.933716,1311.610107 808.166077,1312.042114 804.181335,1310.232910 
	C800.178833,1308.415771 798.796448,1304.854370 799.101440,1300.747803 
	C799.943665,1289.406250 802.309265,1278.343994 806.172607,1267.659546 
	C821.301147,1225.820923 847.192139,1191.687744 881.594055,1163.929199 
	C897.848877,1150.813354 916.046814,1140.672729 935.104370,1132.130005 
	C936.612488,1131.453857 938.246155,1131.038208 939.846375,1130.590332 
	C946.525330,1128.721069 951.556702,1130.882202 953.922546,1136.598145 
	C955.541748,1140.510132 952.897217,1145.984863 947.603821,1148.842163 
	C942.483215,1151.606079 937.103760,1153.887329 931.952576,1156.598389 
	C917.606689,1164.148315 904.263184,1173.195923 891.678223,1183.882568 
	C887.495056,1185.493896 885.276978,1188.943359 882.277771,1191.986694 
	C878.690796,1195.805664 875.268799,1199.315308 871.547241,1202.957642 
	C869.285278,1204.573853 867.405640,1206.131714 866.207397,1208.749023 
	C865.602478,1209.636475 865.195801,1210.254517 864.530273,1210.985474 
	C862.877258,1211.861816 861.972107,1213.038574 861.202148,1214.755127 
z"/>
<path fill="#152834" opacity="1.000000" stroke="none" 
	d="
M1242.307129,832.224365 
	C1241.016724,830.640869 1239.932739,831.635376 1238.878662,831.885925 
	C1235.683350,832.645569 1233.562500,831.463684 1233.262695,828.176514 
	C1233.006104,825.364075 1231.354370,823.650146 1229.457153,822.017334 
	C1225.484253,818.597961 1224.589600,815.121704 1228.129883,811.644104 
	C1233.017456,806.843140 1233.960327,800.551941 1235.808716,794.652405 
	C1239.971313,781.366150 1242.687378,767.538086 1243.399658,753.814514 
	C1243.955811,743.102539 1244.969238,731.745972 1240.382690,721.070679 
	C1239.099854,719.953613 1238.702515,718.666992 1238.361694,717.389343 
	C1236.520020,710.487305 1237.825562,708.613892 1244.873779,707.863892 
	C1245.696777,707.776367 1246.509033,707.592773 1247.343018,707.549500 
	C1255.154175,707.144165 1256.039185,708.144836 1257.678955,715.948730 
	C1260.469360,729.229309 1261.091797,742.654297 1260.369873,756.097290 
	C1259.016357,781.306091 1253.615845,805.697144 1244.229736,829.630371 
	C1244.153442,830.506348 1244.132202,830.938721 1244.022461,831.684570 
	C1243.556396,832.346924 1243.111572,832.497986 1242.307129,832.224365 
z"/>
<path fill="#142935" opacity="1.000000" stroke="none" 
	d="
M1020.003174,1073.469604 
	C1020.896606,1068.291504 1021.783081,1063.704956 1019.275208,1059.029663 
	C1017.809753,1056.297729 1020.066528,1053.829224 1021.781311,1051.973999 
	C1024.188354,1049.370117 1027.330322,1047.510254 1030.061523,1045.196533 
	C1033.554688,1042.237549 1033.621094,1046.550049 1034.864624,1048.689575 
	C1036.350586,1050.584473 1035.460449,1052.102173 1034.975586,1053.689087 
	C1032.098389,1063.108398 1030.500854,1072.740845 1030.497070,1082.600464 
	C1030.478027,1132.016724 1030.484619,1181.433105 1030.497803,1230.849365 
	C1030.498657,1233.836914 1030.507568,1236.814331 1030.842651,1239.809937 
	C1031.242554,1243.383911 1030.437866,1246.770020 1027.410400,1249.799805 
	C1027.116943,1250.178345 1027.082397,1250.062988 1027.130127,1250.099609 
	C1025.733765,1250.775269 1024.270508,1251.149780 1022.319275,1250.249023 
	C1017.379761,1247.952515 1017.488403,1243.775757 1017.484802,1239.804321 
	C1017.466370,1219.508057 1017.540955,1199.211670 1017.701233,1178.459473 
	C1020.900513,1175.614990 1021.469116,1172.267212 1021.476562,1168.654785 
	C1021.499023,1157.696899 1021.397156,1146.738403 1021.562378,1135.320312 
	C1021.297791,1128.083130 1021.343872,1121.300659 1021.477966,1114.527222 
	C1021.746521,1100.964966 1020.628113,1087.463257 1020.003174,1073.469604 
z"/>
<path fill="#172023" opacity="1.000000" stroke="none" 
	d="
M1506.541748,1098.951416 
	C1504.229126,1094.624512 1506.385620,1090.162720 1506.427368,1085.702881 
	C1506.447998,1083.484131 1506.984985,1081.130981 1506.986938,1078.816284 
	C1507.003296,1060.339600 1506.898071,1041.862183 1507.033447,1023.386414 
	C1507.118774,1011.741943 1504.782349,1000.351257 1503.621948,988.848999 
	C1501.782471,970.613831 1498.501709,952.537292 1493.944336,934.762085 
	C1491.248291,924.246765 1489.218018,913.601196 1484.747314,903.457336 
	C1482.306885,897.920227 1481.172119,891.472107 1479.300659,885.476501 
	C1472.770996,864.558167 1463.617432,844.782471 1453.934570,825.157959 
	C1446.865479,810.830933 1438.389648,797.389465 1430.244263,783.733765 
	C1425.762573,776.220215 1420.472046,769.184631 1415.447754,762.002502 
	C1414.287109,760.343445 1413.057251,758.812073 1413.036865,756.303345 
	C1430.242798,777.873047 1444.296021,801.791565 1456.920044,826.563660 
	C1486.461792,884.532959 1503.280151,946.064758 1508.238770,1010.905457 
	C1510.095825,1035.190552 1510.480713,1059.475586 1508.266479,1083.729248 
	C1507.808472,1088.745605 1507.398193,1093.788818 1506.541748,1098.951416 
z"/>
<path fill="#1E2B32" opacity="1.000000" stroke="none" 
	d="
M1027.471313,1250.120117 
	C1029.308105,1245.299561 1029.230957,1240.300903 1029.197998,1234.959473 
	C1028.877808,1183.072632 1028.861816,1131.182251 1029.129150,1079.294800 
	C1029.181030,1069.237061 1031.703125,1059.363525 1034.997925,1049.403076 
	C1037.194702,1044.384277 1040.281738,1040.273926 1040.695312,1034.688843 
	C1040.827271,1032.905518 1044.505371,1030.796387 1046.229980,1028.415527 
	C1050.378662,1022.688477 1054.807007,1017.160034 1059.223389,1011.631958 
	C1062.214478,1007.888000 1065.570068,1004.531128 1070.695190,1003.032715 
	C1063.715576,1009.813538 1056.843750,1017.022034 1050.910767,1025.085938 
	C1037.971680,1042.672607 1031.563110,1062.242065 1031.676025,1084.220703 
	C1031.939819,1135.500488 1031.783447,1186.782471 1031.739746,1238.063477 
	C1031.736084,1242.418579 1032.882812,1247.292847 1027.471313,1250.120117 
z"/>
<path fill="#182227" opacity="1.000000" stroke="none" 
	d="
M1172.619263,845.852295 
	C1172.864746,848.235657 1170.865112,848.416870 1169.190918,849.097961 
	C1152.807251,855.763367 1135.772583,859.523926 1118.170166,861.114258 
	C1111.263916,861.738098 1104.426758,863.228638 1097.446899,862.984436 
	C1085.708008,862.573853 1074.139893,860.408081 1062.468140,859.411499 
	C1049.339478,858.290588 1036.895630,854.221863 1024.463379,850.609680 
	C1013.121033,847.314148 1001.581177,844.068970 990.928711,838.543945 
	C986.689941,836.345581 982.095581,834.826782 977.641602,833.052612 
	C976.264526,832.504028 974.709167,832.293457 974.039062,830.293701 
	C981.534729,831.407104 988.265686,835.195312 995.329895,837.926392 
	C1019.285339,847.187622 1043.690674,854.385986 1069.147949,858.135559 
	C1097.907104,862.371521 1126.166016,859.719971 1154.121094,852.676636 
	C1160.335571,851.110840 1166.207397,848.184875 1172.619263,845.852295 
z"/>
<path fill="#172731" opacity="1.000000" stroke="none" 
	d="
M1244.502197,829.952026 
	C1242.494019,826.978027 1244.855347,824.434021 1245.709473,821.936462 
	C1252.163818,803.065125 1257.023315,783.953735 1258.207153,763.896118 
	C1258.618042,756.936462 1258.520264,749.970886 1259.061279,743.041504 
	C1259.886719,732.465271 1256.686279,722.354614 1255.956299,711.971680 
	C1255.812622,709.928833 1254.594360,709.053162 1252.653931,709.026794 
	C1250.822876,709.001953 1248.991699,709.001465 1247.160522,709.001038 
	C1237.752686,708.998901 1237.758789,708.998718 1239.848999,718.155090 
	C1239.995239,718.795105 1239.953369,719.478027 1240.001953,720.565613 
	C1239.586304,720.992859 1239.167847,720.995544 1238.435303,721.000000 
	C1235.083252,706.866455 1235.083252,706.866394 1249.296143,706.603333 
	C1257.745361,706.446960 1257.639648,706.757324 1259.091431,715.188782 
	C1265.742188,753.815247 1259.670288,790.910400 1246.122314,827.164856 
	C1245.778198,828.085693 1245.264404,828.943176 1244.502197,829.952026 
z"/>
<path fill="#182227" opacity="1.000000" stroke="none" 
	d="
M973.138062,829.560242 
	C967.594971,830.520752 963.291565,826.677673 958.470093,824.797363 
	C943.710571,819.041199 928.407104,815.231323 913.349731,810.546448 
	C897.584839,805.641479 881.629089,803.697266 865.442871,801.865112 
	C851.106995,800.242371 837.183777,802.824585 823.136963,804.483276 
	C821.535889,804.672363 819.841553,805.779785 819.161743,802.841797 
	C824.245422,803.683350 828.970581,801.375000 833.814941,800.708984 
	C861.215820,796.942139 887.862366,800.688354 914.323547,807.597046 
	C932.070801,812.230469 949.093201,818.864319 966.074829,825.642517 
	C968.467834,826.597717 970.670532,828.029541 973.138062,829.560242 
z"/>
<path fill="#172023" opacity="1.000000" stroke="none" 
	d="
M1437.406860,1311.980225 
	C1437.286011,1306.670654 1441.143799,1302.790771 1443.521118,1298.361938 
	C1452.947510,1280.799927 1461.757812,1262.992798 1469.095459,1244.429932 
	C1476.175171,1226.519653 1482.750488,1208.455688 1487.851562,1189.887329 
	C1490.479614,1180.321045 1492.659912,1170.630981 1494.976929,1160.981201 
	C1495.219727,1159.969971 1495.453735,1159.063232 1496.588257,1158.198486 
	C1496.774902,1165.823364 1494.045288,1173.153687 1492.208618,1180.579468 
	C1484.117065,1213.294678 1472.511230,1244.787109 1457.621704,1275.036133 
	C1451.463989,1287.546143 1445.171509,1299.994507 1437.406860,1311.980225 
z"/>
<path fill="#14242E" opacity="1.000000" stroke="none" 
	d="
M1019.711060,1073.276611 
	C1021.380432,1075.303589 1021.819702,1077.840454 1022.013550,1080.481812 
	C1023.323181,1098.325073 1022.957397,1116.197388 1022.998657,1134.531372 
	C1021.516724,1136.273926 1022.314392,1138.417603 1021.158630,1139.816162 
	C1020.071960,1141.131348 1019.021667,1142.154541 1018.140076,1139.238037 
	C1017.792175,1138.241699 1017.708069,1137.499390 1017.727173,1136.394043 
	C1019.269592,1131.927002 1018.228271,1127.704712 1018.110779,1123.257568 
	C1017.709473,1121.917480 1017.623901,1120.861450 1017.653320,1119.421387 
	C1018.850037,1118.295898 1018.573425,1117.309570 1018.004517,1116.144775 
	C1017.603149,1108.617188 1017.455505,1101.260864 1017.413208,1093.458252 
	C1018.757202,1089.311890 1017.242371,1085.374146 1018.739990,1081.345093 
	C1019.211365,1078.532349 1018.553589,1075.997803 1019.711060,1073.276611 
z"/>
<path fill="#182227" opacity="1.000000" stroke="none" 
	d="
M815.425232,1308.154419 
	C816.769470,1293.338623 821.938965,1279.425537 827.649658,1265.637817 
	C832.753784,1253.314575 839.179565,1241.775513 846.983032,1230.976929 
	C847.871094,1229.747925 848.649414,1228.488159 850.571167,1228.035156 
	C845.801331,1236.696411 839.886230,1244.919312 835.419861,1253.999390 
	C828.654907,1267.752319 823.120544,1281.941040 820.086121,1297.035767 
	C819.306091,1300.916016 818.589600,1304.904907 815.425232,1308.154419 
z"/>
<path fill="#15232E" opacity="1.000000" stroke="none" 
	d="
M1017.764099,1139.442383 
	C1018.790771,1139.408203 1019.646179,1141.298340 1020.601257,1138.861816 
	C1021.094055,1137.604492 1020.418823,1135.742798 1022.652283,1135.060059 
	C1022.998840,1146.965698 1023.035034,1158.931396 1022.978088,1170.896851 
	C1022.963074,1174.060791 1023.052734,1177.464966 1018.219604,1178.000610 
	C1017.763550,1165.302612 1017.707703,1152.601685 1017.764099,1139.442383 
z"/>
<path fill="#172023" opacity="1.000000" stroke="none" 
	d="
M1498.376221,1152.133911 
	C1498.305542,1141.501709 1500.969849,1131.095215 1502.344238,1120.516235 
	C1503.167847,1114.176270 1504.348755,1107.882690 1505.636963,1101.292603 
	C1506.165894,1109.032837 1504.246338,1116.791260 1503.266846,1124.666504 
	C1502.408691,1131.566040 1501.350952,1138.423218 1500.242310,1145.277344 
	C1499.874023,1147.554932 1499.199341,1149.782959 1498.376221,1152.133911 
z"/>
<path fill="#172731" opacity="1.000000" stroke="none" 
	d="
M1241.866455,832.328369 
	C1242.441040,831.997559 1242.867554,831.997559 1243.614014,831.997803 
	C1241.162231,841.518677 1236.211548,850.040283 1231.388184,858.945435 
	C1231.621460,853.765808 1234.059937,849.001160 1236.546387,844.437317 
	C1238.627075,840.617981 1239.903931,836.540222 1241.866455,832.328369 
z"/>
<path fill="#172023" opacity="1.000000" stroke="none" 
	d="
M1381.355713,1385.995605 
	C1380.963867,1384.806885 1381.070312,1383.569580 1382.048462,1382.473267 
	C1387.272461,1376.619019 1392.447998,1370.721436 1397.662476,1364.858643 
	C1398.422119,1364.004517 1399.244507,1363.164795 1400.873291,1363.083740 
	C1395.488037,1371.339111 1388.263062,1378.326172 1381.355713,1385.995605 
z"/>
<path fill="#172023" opacity="1.000000" stroke="none" 
	d="
M1410.330811,1351.898193 
	C1410.071777,1351.412720 1409.869263,1350.617310 1410.164551,1350.113892 
	C1414.802124,1342.208252 1420.055786,1334.747925 1426.746582,1328.073975 
	C1422.196045,1336.357178 1416.193481,1343.891602 1410.330811,1351.898193 
z"/>
<path fill="#172731" opacity="1.000000" stroke="none" 
	d="
M1216.296387,883.852417 
	C1215.655273,880.325439 1218.379761,877.899353 1220.045044,875.176147 
	C1223.366333,869.745605 1225.651733,863.611389 1230.788818,859.108582 
	C1226.982300,867.695374 1221.792358,875.689331 1216.296387,883.852417 
z"/>
<path fill="#172023" opacity="1.000000" stroke="none" 
	d="
M1427.356934,1327.928711 
	C1428.038818,1321.509766 1432.136597,1316.749878 1436.813965,1312.114014 
	C1434.572632,1317.672729 1430.935181,1322.605713 1427.356934,1327.928711 
z"/>
<path fill="#1E2B32" opacity="1.000000" stroke="none" 
	d="
M1076.353027,998.946655 
	C1078.041748,993.692200 1082.814697,991.888733 1087.963623,990.101440 
	C1084.463623,993.041992 1080.572876,995.947205 1076.353027,998.946655 
z"/>
<path fill="#142935" opacity="1.000000" stroke="none" 
	d="
M1018.711060,1081.009888 
	C1018.553040,1084.901855 1019.949585,1088.910278 1017.862427,1092.861084 
	C1017.403870,1089.307495 1017.289185,1085.603149 1017.262939,1081.444092 
	C1017.713928,1080.994751 1018.076538,1080.999878 1018.711060,1081.009888 
z"/>
<path fill="#182227" opacity="1.000000" stroke="none" 
	d="
M882.422668,1192.152832 
	C883.397400,1187.956665 886.160156,1185.126465 890.983643,1183.987549 
	C888.497559,1186.656372 885.615051,1189.333008 882.422668,1192.152832 
z"/>
<path fill="#172023" opacity="1.000000" stroke="none" 
	d="
M1412.980713,755.630737 
	C1408.816040,754.766113 1407.374512,751.223938 1406.102051,747.192505 
	C1408.389648,749.642700 1410.640747,752.471436 1412.980713,755.630737 
z"/>
<path fill="#172023" opacity="1.000000" stroke="none" 
	d="
M1357.353882,1404.749634 
	C1359.304932,1401.499390 1362.812500,1400.211914 1366.781738,1399.086182 
	C1364.576660,1401.940430 1361.077515,1403.228027 1357.353882,1404.749634 
z"/>
<path fill="#647377" opacity="1.000000" stroke="none" 
	d="
M1213.394775,1448.269775 
	C1216.788330,1448.837524 1220.036255,1450.380371 1223.794922,1452.795532 
	C1219.466431,1453.004639 1216.560425,1451.096313 1213.254517,1449.680664 
	C1213.210571,1449.166260 1213.363647,1448.924072 1213.394775,1448.269775 
z"/>
<path fill="#172023" opacity="1.000000" stroke="none" 
	d="
M1399.024780,737.600220 
	C1395.669800,737.181274 1393.636719,735.071289 1393.048584,731.207031 
	C1395.014893,732.980347 1396.967529,735.130920 1399.024780,737.600220 
z"/>
<path fill="#182227" opacity="1.000000" stroke="none" 
	d="
M866.301025,1208.863892 
	C865.891418,1205.812744 867.727783,1204.091675 870.879883,1203.090576 
	C869.695984,1204.963379 868.144470,1206.836426 866.301025,1208.863892 
z"/>
<path fill="#182227" opacity="1.000000" stroke="none" 
	d="
M851.408081,1227.128174 
	C851.393066,1224.368286 852.398193,1221.994629 855.855957,1221.139160 
	C854.724182,1223.110840 853.224915,1225.060547 851.408081,1227.128174 
z"/>
<path fill="#142935" opacity="1.000000" stroke="none" 
	d="
M1017.676575,1123.426270 
	C1020.041504,1127.036987 1018.984436,1131.280396 1018.154053,1135.762451 
	C1017.739624,1131.980347 1017.648804,1127.929688 1017.676575,1123.426270 
z"/>
<path fill="#172023" opacity="1.000000" stroke="none" 
	d="
M1367.423584,1399.071777 
	C1367.219727,1396.447388 1368.738159,1395.174072 1371.729004,1395.031006 
	C1370.650879,1396.351562 1369.195801,1397.666382 1367.423584,1399.071777 
z"/>
<path fill="#172023" opacity="1.000000" stroke="none" 
	d="
M1403.036011,742.604248 
	C1400.447388,742.743042 1399.140381,741.259338 1399.066040,738.246826 
	C1400.372925,739.342346 1401.658203,740.815308 1403.036011,742.604248 
z"/>
<path fill="#1E2B32" opacity="1.000000" stroke="none" 
	d="
M1071.353882,1002.972351 
	C1071.291626,1000.483826 1072.759277,999.181824 1075.672852,999.019531 
	C1074.583984,1000.311218 1073.125610,1001.595398 1071.353882,1002.972351 
z"/>
<path fill="#182227" opacity="1.000000" stroke="none" 
	d="
M856.459900,1221.053101 
	C855.708374,1218.545654 856.829651,1216.866943 859.756836,1216.068359 
	C858.998962,1217.661865 857.871887,1219.274780 856.459900,1221.053101 
z"/>
<path fill="#172023" opacity="1.000000" stroke="none" 
	d="
M1406.101074,746.560547 
	C1403.917358,746.978821 1403.005127,745.768005 1403.066040,743.251709 
	C1404.062988,743.996338 1405.038940,745.122620 1406.101074,746.560547 
z"/>
<path fill="#172023" opacity="1.000000" stroke="none" 
	d="
M1407.279419,1355.844482 
	C1406.967529,1354.206787 1407.141235,1352.538696 1409.705566,1352.062012 
	C1409.231201,1353.254639 1408.395508,1354.472778 1407.279419,1355.844482 
z"/>
<path fill="#1E2B32" opacity="1.000000" stroke="none" 
	d="
M1022.058350,1250.308594 
	C1023.372437,1250.042847 1024.836304,1250.045410 1026.739136,1250.092163 
	C1025.662231,1251.872070 1023.958435,1251.486328 1022.058350,1250.308594 
z"/>
<path fill="#182227" opacity="1.000000" stroke="none" 
	d="
M861.293518,1214.866699 
	C860.968750,1213.147583 861.178711,1211.439209 863.895630,1211.099243 
	C863.374634,1212.305298 862.478027,1213.512207 861.293518,1214.866699 
z"/>
<path fill="#172023" opacity="1.000000" stroke="none" 
	d="
M1375.394409,1392.130005 
	C1375.017212,1390.537109 1375.667358,1389.370850 1377.866943,1389.093262 
	C1377.391479,1390.059570 1376.543091,1391.031738 1375.394409,1392.130005 
z"/>
<path fill="#172023" opacity="1.000000" stroke="none" 
	d="
M1497.359619,1157.113647 
	C1497.182495,1155.987183 1497.284912,1154.759277 1497.650635,1153.271484 
	C1497.819702,1154.344849 1498.871704,1155.757080 1497.359619,1157.113647 
z"/>
<path fill="#172023" opacity="1.000000" stroke="none" 
	d="
M1403.245239,1360.770752 
	C1403.075928,1359.755615 1402.855469,1358.411255 1404.888306,1358.100708 
	C1404.670410,1358.930054 1404.093140,1359.775024 1403.245239,1360.770752 
z"/>
<path fill="#142935" opacity="1.000000" stroke="none" 
	d="
M1017.628418,1116.347168 
	C1019.002686,1116.648438 1019.235474,1117.547363 1018.058105,1118.864990 
	C1017.680847,1118.265381 1017.593506,1117.493042 1017.628418,1116.347168 
z"/>
<path fill="#F8F9FB" opacity="1.000000" stroke="none" 
	d="
M1064.075684,1456.337769 
	C1053.079224,1450.318604 1050.977417,1438.926636 1059.280273,1432.178955 
	C1064.102539,1428.260010 1069.911743,1428.205811 1075.413940,1432.028198 
	C1080.531616,1435.583496 1082.752075,1442.354492 1080.808350,1448.477539 
	C1079.366577,1453.019287 1073.198975,1457.082764 1067.892456,1456.926758 
	C1066.739258,1456.892944 1065.592407,1456.644531 1064.075684,1456.337769 
z"/>
<path fill="#F8F9FB" opacity="1.000000" stroke="none" 
	d="
M915.605591,1451.401489 
	C918.164795,1449.504395 920.664185,1449.138306 922.286255,1451.685059 
	C923.761169,1454.000732 923.780212,1456.805176 921.636169,1458.957764 
	C919.945618,1460.654907 917.815918,1460.178223 916.230652,1458.863037 
	C913.840942,1456.880005 914.180847,1454.271973 915.605591,1451.401489 
z"/>
<path fill="#F8F9FB" opacity="1.000000" stroke="none" 
	d="
M969.605957,905.816711 
	C964.920898,904.365784 962.143311,901.420288 960.993408,897.171143 
	C959.472656,891.551575 962.804138,885.589478 968.019897,884.089600 
	C973.412109,882.538879 980.896057,886.346191 982.743835,891.580200 
	C984.427063,896.348206 981.615540,902.667480 976.751770,904.931519 
	C974.613586,905.926819 972.372070,906.451721 969.605957,905.816711 
z"/>
<path fill="#F8F9FB" opacity="1.000000" stroke="none" 
	d="
M1095.304321,898.710815 
	C1094.541870,898.252075 1094.044800,898.014343 1093.779297,897.620544 
	C1092.201050,895.278809 1092.390503,892.811401 1093.924438,890.646912 
	C1095.103638,888.982971 1097.065796,888.782471 1098.896118,889.620300 
	C1101.161987,890.657471 1101.162964,892.731323 1100.794067,894.774780 
	C1100.289307,897.572388 1098.895264,899.395081 1095.304321,898.710815 
z"/>
</svg>